<?xml version="1.0" standalone="no"?>
<!DOCTYPE svg PUBLIC "-//W3C//DTD SVG 1.1//EN" "http://www.w3.org/Graphics/SVG/1.1/DTD/svg11.dtd" >
<svg xmlns="http://www.w3.org/2000/svg" xmlns:xlink="http://www.w3.org/1999/xlink" version="1.1">
<metadata>
Created by FontForge 20161116 at Tue May 11 14:53:33 2004
 By Jimmy Wärting
Copyright (c) 1990-1996 ParaGraph
</metadata>
<defs>
<font id="BodoniC-BookCond" horiz-adv-x="418" >
  <font-face 
    font-family="BodoniCondC"
    font-weight="400"
    font-stretch="condensed"
    units-per-em="1000"
    panose-1="2 7 5 6 8 0 0 2 0 3"
    ascent="800"
    descent="-200"
    x-height="437"
    cap-height="655"
    bbox="-285 -229 1014 836"
    underline-thickness="50"
    underline-position="-100"
    stemh="20"
    stemv="98"
    unicode-range="U+0020-2122"
  />
<missing-glyph horiz-adv-x="233" 
 />
    <glyph glyph-name=".notdef" horiz-adv-x="233" 
 />
    <glyph glyph-name=".notdef" horiz-adv-x="233" 
 />
    <glyph glyph-name="space" unicode=" " horiz-adv-x="233" 
 />
    <glyph glyph-name="space" unicode="&#xa0;" horiz-adv-x="233" 
 />
    <glyph glyph-name="exclam" unicode="!" horiz-adv-x="299" 
d="M161 171h-24c-1 44 -4 118 -7 154c-4 57 -12 119 -24 170c-12 54 -22 82 -22 114c0 59 44 60 65 60c23 0 66 -6 66 -61c0 -29 -11 -58 -23 -113c-8 -35 -18 -93 -24 -170c-3 -36 -6 -110 -7 -154zM93 42c0 30 26 56 56 56s56 -26 56 -56c0 -23 -18 -56 -56 -56
s-56 33 -56 56z" />
    <glyph glyph-name="quotedbl" unicode="&#x22;" horiz-adv-x="395" 
d="M145 666l-28 -221h-39l-28 221h95zM322 666l-29 -221h-38l-29 221h96z" />
    <glyph glyph-name="numbersign" unicode="#" horiz-adv-x="739" 
d="M459 -59h-70l27 178h-150l-27 -178h-70l26 178h-139l13 90h140l29 190h-140l14 90h140l27 177h70l-27 -177h151l27 177h70l-27 -177h140l-14 -90h-140l-29 -190h140l-14 -90h-140zM429 209l29 190h-149l-29 -190h149z" />
    <glyph glyph-name="dollar" unicode="$" horiz-adv-x="416" 
d="M342 469c-13 53 -28 86 -42 110c-22 38 -43 54 -68 62v-217l53 -29c37 -20 66 -46 87 -90c17 -35 23 -70 23 -101c0 -32 -7 -79 -18 -107c-17 -47 -63 -107 -145 -105v-92h-30v92c-17 3 -38 8 -56 16c-14 6 -27 15 -39 15c-8 0 -28 -2 -35 -23h-30v233h21
c12 -75 34 -117 52 -146c41 -64 79 -72 87 -73v258l-47 26c-33 18 -58 45 -73 74c-16 31 -25 72 -25 109c0 26 5 95 49 141c33 34 69 42 96 42v73h30v-73c21 -4 27 -9 39 -14c20 -9 27 -13 32 -13c10 0 23 7 30 18h31v-186h-22zM232 259v-245c24 1 51 10 67 26
c19 20 30 60 30 89c0 78 -53 104 -85 123zM202 437v204c-36 2 -57 -18 -65 -28c-12 -15 -19 -37 -19 -69c0 -23 4 -40 18 -58c18 -24 36 -31 53 -41z" />
    <glyph glyph-name="percent" unicode="%" horiz-adv-x="802" 
d="M112 518c0 62 17 107 44 141c22 28 49 48 89 48c37 0 67 -16 92 -48c40 -51 43 -114 43 -140c0 -51 -13 -102 -43 -141c-25 -32 -55 -48 -92 -48c-40 0 -67 20 -89 48c-32 40 -44 89 -44 140zM203 610v-183c0 -23 2 -40 9 -53c9 -16 22 -24 34 -24c10 0 24 4 33 23
c6 13 10 37 10 54v183c0 17 -4 41 -10 54c-9 18 -23 23 -34 23c-13 0 -26 -10 -33 -24c-6 -11 -9 -37 -9 -53zM211 -178l-28 18l393 943l27 -17zM408 91c0 62 17 107 44 141c22 28 49 48 89 48c37 0 67 -16 92 -48c40 -51 43 -114 43 -140c0 -51 -13 -102 -43 -141
c-25 -32 -55 -48 -92 -48c-40 0 -67 20 -89 48c-32 40 -44 89 -44 140zM499 183v-183c0 -23 2 -40 9 -53c7 -14 20 -24 33 -24c11 0 25 5 34 23c6 13 10 37 10 54v183c0 17 -4 41 -10 54c-9 18 -23 23 -34 23c-13 0 -26 -10 -33 -24c-6 -11 -9 -37 -9 -53z" />
    <glyph glyph-name="ampersand" unicode="&#x26;" horiz-adv-x="550" 
d="M298 357h-47c-15 0 -34 0 -53 -18c-21 -21 -34 -77 -34 -107v-38c0 -67 11 -99 19 -117c26 -58 64 -63 80 -63c37 0 70 19 91 48c28 40 31 103 31 121c0 14 -2 7 -3 48h-40c-18 0 -55 -1 -74 -12c-10 -6 -24 -18 -24 -29c0 -10 6 -12 9 -12c18 0 10 8 25 8
c18 0 43 -16 43 -51c0 -33 -20 -56 -45 -56c-23 0 -54 20 -54 81c0 38 9 81 33 117c32 49 74 59 104 59l69 -1c29 0 97 0 97 39c0 4 1 7 -1 11c-1 2 -2 4 -3 4c-5 0 -12 -10 -27 -10c-24 0 -49 16 -49 55c0 34 22 59 49 59c23 0 56 -15 56 -95c0 -90 -60 -167 -130 -167h-11
c2 -12 3 -21 3 -34c0 -21 -2 -71 -21 -114c-37 -84 -103 -91 -148 -91c-35 0 -85 6 -130 38c-39 28 -71 74 -71 145c0 79 32 124 65 150c30 24 66 36 112 44v4c-39 12 -74 24 -99 48c-23 22 -37 53 -37 97c0 36 14 98 75 128c29 15 61 17 88 17s72 -1 107 -34
c26 -24 36 -54 36 -82c0 -50 -26 -72 -51 -72c-27 0 -54 25 -54 56c0 18 9 36 22 48c7 7 20 15 20 30c0 19 -33 32 -67 32c-17 0 -37 -3 -52 -22c-13 -16 -18 -46 -18 -68v-67c0 -29 0 -74 37 -95c12 -7 31 -10 47 -10h25v-22z" />
    <glyph glyph-name="quotesingle" unicode="'" horiz-adv-x="218" 
d="M145 666l-28 -221h-39l-28 221h95z" />
    <glyph glyph-name="parenleft" unicode="(" horiz-adv-x="469" 
d="M328 -198l-19 -12c-53 62 -93 118 -128 197c-30 69 -55 149 -55 241c0 98 24 179 64 260c37 76 72 124 119 185l20 -8c-39 -66 -64 -116 -82 -193c-22 -92 -23 -167 -23 -247c0 -76 1 -145 27 -242c13 -48 37 -122 77 -181z" />
    <glyph glyph-name="parenright" unicode=")" horiz-adv-x="469" 
d="M160 -210l-19 12c40 59 64 133 77 181c26 97 27 166 27 242c0 80 -1 155 -23 247c-18 77 -43 127 -82 193l20 8c47 -61 82 -109 119 -185c40 -81 64 -162 64 -260c0 -92 -25 -172 -55 -241c-35 -79 -75 -135 -128 -197z" />
    <glyph glyph-name="asterisk" unicode="*" horiz-adv-x="484" 
d="M281 488v-19l86 -27c17 -5 21 -7 24 -8c12 -5 23 -16 23 -37c0 -20 -13 -39 -39 -39c-18 0 -27 10 -42 24l-67 62l-17 -10l21 -88c2 -10 6 -18 6 -27c0 -18 -13 -41 -41 -41c-29 0 -42 23 -42 41c0 11 4 16 7 27l21 88l-17 10l-66 -62c-11 -10 -22 -24 -42 -24
c-18 0 -40 12 -40 43c0 9 1 20 15 29c8 5 18 8 32 12l86 27v19l-86 27c-9 3 -16 3 -25 7c-11 5 -22 16 -22 37c0 28 23 40 40 40c20 0 32 -16 41 -24l67 -62l17 10l-21 88c-2 10 -6 19 -6 29c0 24 22 39 41 39c14 0 41 -10 41 -39c0 -11 -4 -21 -6 -29l-21 -88l17 -10l66 62
c8 8 22 24 43 24c19 0 39 -13 39 -40c0 -16 -5 -29 -22 -36c-5 -2 -12 -4 -25 -8z" />
    <glyph glyph-name="plus" unicode="+" horiz-adv-x="698" 
d="M49 337h279v279h42v-279h279v-42h-279v-279h-42v279h-279v42z" />
    <glyph glyph-name="comma" unicode="," horiz-adv-x="285" 
d="M112 -152l-12 17c22 15 42 36 54 56c8 14 18 39 18 57c0 19 -11 23 -16 23s-9 -4 -14 -7c-6 -4 -13 -5 -20 -5c-32 0 -52 21 -52 52c0 39 29 57 56 57c19 0 41 -9 56 -29c17 -22 19 -47 19 -66c0 -21 -3 -55 -30 -95c-16 -23 -38 -44 -59 -60z" />
    <glyph glyph-name="hyphenminus" horiz-adv-x="336" 
d="M56 210v45h210v-45h-210z" />
    <glyph glyph-name="period" unicode="." horiz-adv-x="238" 
d="M56 42c0 30 26 56 56 56s56 -26 56 -56c0 -23 -18 -56 -56 -56s-56 33 -56 56z" />
    <glyph glyph-name="slash" unicode="/" horiz-adv-x="740" 
d="M149 -191l-51 25l492 960l52 -26z" />
    <glyph glyph-name="zero" unicode="0" 
d="M40 328c0 128 22 206 58 265c20 33 51 70 111 70c62 0 95 -39 114 -72c46 -78 55 -189 55 -262c0 -80 -10 -177 -46 -248c-35 -70 -86 -89 -126 -89c-63 0 -93 42 -110 71c-33 57 -56 145 -56 265zM162 523v-375c0 -67 3 -91 11 -108c10 -22 27 -26 36 -26
c12 0 26 7 34 21c6 11 13 32 13 113v371c0 52 -1 83 -14 103c-6 10 -17 19 -31 19c-9 0 -27 -2 -37 -24c-13 -27 -12 -70 -12 -94z" />
    <glyph glyph-name="one" unicode="1" 
d="M280 669v-647h58v-22h-225v22h59v588c0 14 -2 18 -34 18h-31v25h50c37 0 86 7 123 16z" />
    <glyph glyph-name="two" unicode="2" 
d="M106 109h211c20 0 29 9 36 27s14 55 16 74h16l-6 -210h-329v63l116 162c36 50 65 94 82 150c11 38 17 86 17 122c0 24 -3 64 -17 97c-11 24 -28 47 -60 47c-20 0 -37 -9 -47 -21c-7 -9 -15 -26 -15 -34c0 -26 31 -36 49 -66c8 -13 14 -34 14 -50c0 -30 -20 -76 -66 -76
c-39 0 -70 38 -70 96c0 49 25 109 63 141c31 26 64 32 101 32c30 0 90 -7 131 -68c20 -30 32 -70 32 -108s-8 -78 -34 -118c-19 -29 -52 -63 -115 -129z" />
    <glyph glyph-name="three" unicode="3" 
d="M243 479v68c0 42 -6 59 -8 64c-10 26 -26 30 -45 30c-34 0 -45 -19 -45 -31c0 -13 13 -26 22 -39c7 -9 16 -24 16 -47c0 -30 -17 -64 -55 -64c-44 0 -62 44 -62 80c0 32 14 67 41 91c33 29 70 32 95 32c65 0 103 -31 121 -53c20 -24 33 -58 33 -97c0 -38 -12 -74 -33 -98
c-24 -27 -59 -40 -82 -45v-6c62 -14 94 -51 110 -78c19 -33 27 -84 27 -121c0 -33 -13 -71 -37 -104c-48 -65 -113 -69 -144 -69c-73 0 -109 42 -122 62c-15 23 -25 52 -25 87c0 62 34 89 66 89c28 0 63 -23 63 -76c0 -20 -5 -42 -35 -67c-9 -7 -22 -15 -22 -29
c0 -11 8 -25 18 -32c11 -8 29 -12 44 -12c27 0 49 12 61 40c3 8 11 28 11 74v119c0 38 -6 58 -7 61c-11 34 -33 41 -48 41c-9 0 -16 -2 -23 -5c-7 -2 -13 -4 -23 -4c-20 0 -26 12 -26 25c0 16 12 23 24 23c14 0 23 -7 41 -7c20 0 32 6 41 29c7 19 8 55 8 69z" />
    <glyph glyph-name="four" unicode="4" 
d="M328 663v-402h56v-93h-56v-146h58v-22h-230v22h64v146h-170v93l187 402h91zM220 261v320l-147 -320h147z" />
    <glyph glyph-name="five" unicode="5" 
d="M116 520l-4 -154c8 14 18 27 35 39c18 13 43 24 76 24c30 0 63 -9 91 -32c60 -48 71 -132 71 -186c0 -80 -33 -148 -80 -184c-26 -19 -63 -35 -110 -35c-45 0 -81 12 -110 46c-24 28 -36 62 -36 95c0 46 25 99 72 99c44 0 65 -43 65 -78c0 -46 -26 -62 -39 -73
c-7 -6 -21 -19 -21 -29c0 -14 11 -38 58 -38c18 0 30 1 45 16c33 32 34 84 34 128v77c0 75 -9 107 -19 124c-13 22 -34 35 -53 35c-12 0 -31 -3 -53 -26c-9 -10 -18 -21 -24 -34l-25 9l8 311c50 -28 95 -30 123 -30c70 0 105 15 129 39h17c-16 -41 -31 -72 -54 -98
c-33 -38 -66 -51 -117 -51c-23 0 -48 3 -79 6z" />
    <glyph glyph-name="six" unicode="6" 
d="M179 382c23 38 59 38 76 38c18 0 78 0 115 -82c18 -39 22 -83 22 -118c0 -41 -7 -86 -23 -127c-35 -89 -94 -101 -135 -101c-53 0 -84 21 -114 65c-58 86 -61 219 -61 261c0 38 5 157 45 242c47 98 113 103 137 103c44 0 76 -13 96 -29c29 -22 42 -51 42 -77
c0 -19 -6 -42 -17 -57s-28 -23 -45 -23c-36 0 -61 34 -61 71c0 49 34 66 34 78c0 8 -12 15 -48 15c-19 0 -35 -5 -47 -29c-8 -15 -12 -35 -14 -79c0 -12 -1 -32 -2 -151zM179 277v-147c0 -50 -1 -76 12 -96c9 -14 20 -20 34 -20s30 5 39 29c5 15 6 32 6 57v193
c0 35 -2 52 -6 64c-8 22 -25 34 -39 34c-16 0 -32 -14 -39 -31c-8 -19 -7 -46 -7 -83z" />
    <glyph glyph-name="seven" unicode="7" 
d="M85 419h-19l16 236h284c9 0 8 -7 8 -12c0 -21 -6 -39 -13 -68c-44 -187 -35 -111 -61 -227c-27 -121 -34 -190 -37 -226c-4 -46 -7 -87 -8 -122h-136c3 51 13 103 27 148c27 85 67 148 102 205c35 58 64 114 83 192h-196c-20 0 -35 -36 -40 -58c-2 -10 -6 -27 -10 -68z
" />
    <glyph glyph-name="eight" unicode="8" 
d="M152 341l-36 32c-13 11 -27 25 -38 46c-11 22 -19 53 -19 81c0 43 17 93 53 126c38 34 78 37 113 37s72 -4 107 -40c26 -27 35 -58 35 -90c0 -38 -11 -73 -31 -98c-14 -18 -44 -42 -51 -48l39 -42c21 -23 38 -43 51 -74c12 -29 15 -57 15 -81c0 -30 -6 -69 -25 -108
c-26 -52 -68 -90 -148 -90c-62 0 -105 24 -134 65c-25 34 -35 75 -35 115s12 74 35 105c17 23 45 48 69 64zM171 502l88 -89c35 36 43 77 43 112c0 18 -2 51 -14 75c-19 38 -51 41 -65 41c-21 0 -41 -10 -54 -25c-14 -15 -22 -38 -22 -56s7 -41 24 -58zM267 228l-89 86
c-9 -10 -27 -31 -41 -60c-15 -31 -21 -58 -21 -91c0 -26 3 -62 19 -94c23 -48 60 -55 81 -55c20 0 45 8 61 22c23 21 33 59 33 95c0 19 -4 59 -43 97z" />
    <glyph glyph-name="nine" unicode="9" 
d="M266 273c-21 -34 -51 -38 -75 -38c-19 0 -79 0 -116 82c-18 39 -22 83 -22 118c0 68 19 145 60 188c28 29 60 40 98 40c53 0 84 -21 114 -65c27 -39 60 -112 60 -250c0 -39 -1 -162 -44 -253c-47 -98 -113 -103 -136 -103c-51 0 -83 18 -97 29c-33 25 -42 57 -42 79
c0 19 5 40 17 55c13 18 31 23 45 23c35 0 61 -33 61 -71c0 -18 -7 -39 -17 -53c-6 -9 -17 -18 -17 -24c0 -14 29 -16 48 -16c21 0 50 7 58 70c4 34 4 72 5 189zM266 378v147c0 50 1 76 -12 96s-30 20 -39 20c-15 0 -27 -10 -34 -29c-5 -15 -6 -33 -6 -57v-193
c0 -35 2 -52 6 -64c8 -22 25 -34 39 -34c12 0 29 10 38 31c11 24 8 57 8 83z" />
    <glyph glyph-name="colon" unicode=":" horiz-adv-x="322" 
d="M98 381c0 38 33 56 56 56c30 0 56 -26 56 -56c0 -23 -18 -56 -56 -56c-32 0 -56 24 -56 56zM98 42c0 30 26 56 56 56c23 0 56 -18 56 -56s-33 -56 -56 -56c-30 0 -56 26 -56 56z" />
    <glyph glyph-name="semicolon" unicode=";" horiz-adv-x="369" 
d="M125 381c0 30 26 56 56 56s56 -26 56 -56c0 -23 -18 -56 -56 -56s-56 33 -56 56zM154 -152l-12 17c22 15 42 36 54 56c8 14 18 39 18 57c0 19 -11 23 -16 23s-9 -4 -14 -7c-6 -4 -13 -5 -20 -5c-32 0 -52 21 -52 52c0 39 29 57 56 57c19 0 41 -9 56 -29
c17 -22 19 -47 19 -66c0 -21 -3 -55 -30 -95c-16 -23 -38 -44 -59 -60z" />
    <glyph glyph-name="semicolon" unicode="&#x37e;" horiz-adv-x="369" 
d="M125 381c0 30 26 56 56 56s56 -26 56 -56c0 -23 -18 -56 -56 -56s-56 33 -56 56zM154 -152l-12 17c22 15 42 36 54 56c8 14 18 39 18 57c0 19 -11 23 -16 23s-9 -4 -14 -7c-6 -4 -13 -5 -20 -5c-32 0 -52 21 -52 52c0 39 29 57 56 57c19 0 41 -9 56 -29
c17 -22 19 -47 19 -66c0 -21 -3 -55 -30 -95c-16 -23 -38 -44 -59 -60z" />
    <glyph glyph-name="less" unicode="&#x3c;" horiz-adv-x="532" 
d="M14 329l461 266l29 -54l-367 -212l367 -212l-29 -54z" />
    <glyph glyph-name="equal" unicode="=" horiz-adv-x="698" 
d="M49 407h600v-42h-600v42zM49 267h600v-42h-600v42z" />
    <glyph glyph-name="greater" unicode="&#x3e;" horiz-adv-x="532" 
d="M518 329l-461 -266l-29 54l367 212l-367 212l29 54z" />
    <glyph glyph-name="question" unicode="?" horiz-adv-x="497" 
d="M244 168h-25v53c0 8 1 34 24 102c17 49 34 91 34 164c0 35 -5 78 -17 106c-9 23 -25 45 -58 45c-23 0 -39 -13 -52 -36c-4 -7 -14 -24 -14 -37c0 -16 10 -21 17 -21c3 0 7 1 10 2c4 1 9 2 13 2c24 0 55 -29 55 -77c0 -17 -5 -39 -16 -53c-8 -11 -23 -22 -47 -22
c-26 0 -70 17 -70 103c0 30 5 66 19 94c16 34 52 76 129 76c39 0 72 -10 101 -38c32 -31 52 -80 52 -127c0 -79 -43 -127 -85 -173c-50 -55 -70 -90 -70 -147v-16zM177 42c0 30 26 56 56 56s56 -26 56 -56c0 -23 -18 -56 -56 -56s-56 33 -56 56z" />
    <glyph glyph-name="at" unicode="@" horiz-adv-x="714" 
d="M555 490l-62 -205c-11 -37 -14 -57 -14 -70c0 -29 20 -40 43 -40c18 0 66 9 105 78c21 37 32 75 32 122c0 75 -32 141 -80 187c-43 41 -109 78 -203 78c-84 0 -158 -27 -219 -88c-63 -63 -93 -144 -93 -221c0 -78 30 -162 95 -229c60 -62 124 -87 215 -87
c36 0 74 4 117 22c34 14 59 32 75 46l16 -20c-15 -11 -44 -31 -74 -45c-47 -22 -92 -29 -141 -29c-87 0 -163 23 -233 93c-71 72 -106 169 -106 253c0 85 33 170 100 235c71 69 156 96 247 96c65 0 152 -15 225 -85c50 -48 86 -120 86 -209c0 -50 -14 -93 -32 -127
c-20 -37 -62 -96 -142 -96c-27 0 -67 6 -93 47c-33 -27 -62 -40 -98 -40c-45 0 -75 21 -92 39c-26 28 -34 63 -34 102c0 66 28 111 51 138c41 49 92 68 147 68c24 0 56 -4 89 -48l11 35h62zM413 229l51 179c-7 43 -37 71 -72 71c-41 0 -68 -32 -85 -59
c-32 -52 -40 -106 -40 -147c0 -32 4 -48 10 -59c8 -15 24 -31 58 -31c13 0 46 2 78 46z" />
    <glyph glyph-name="A" unicode="A" horiz-adv-x="399" 
d="M234 191h-146l-11 -43c-4 -17 -12 -59 -12 -71c0 -24 12 -39 25 -46c6 -3 16 -6 41 -9v-22h-159v22c32 2 46 21 54 38c11 23 17 50 23 74l135 529h46l162 -641h42v-22h-212v22h57zM231 213l-69 272l-70 -272h139z" />
    <glyph glyph-name="B" unicode="B" horiz-adv-x="480" 
d="M28 655h223c97 0 137 -26 153 -39c21 -17 44 -48 44 -99c0 -53 -24 -86 -44 -105c-26 -24 -59 -36 -104 -47v-5c61 -16 93 -37 120 -65c34 -35 42 -63 42 -109c0 -44 -9 -82 -40 -119c-49 -58 -121 -67 -167 -67h-227v22h58v611h-58v22zM194 377h50c20 0 44 2 64 29
c18 24 20 47 20 68v67c0 24 -2 59 -30 80c-17 12 -32 12 -49 12h-55v-256zM194 22h45c59 0 77 24 86 41c13 26 15 57 15 86v69c0 37 -1 64 -17 94c-10 19 -30 43 -75 43h-54v-333z" />
    <glyph glyph-name="C" unicode="C" horiz-adv-x="426" 
d="M408 444h-20c-7 52 -23 91 -34 114c-12 26 -43 83 -101 83c-29 0 -65 -17 -85 -65c-18 -43 -21 -103 -21 -170v-137c0 -93 8 -154 31 -197c20 -37 49 -58 74 -58c28 0 74 17 108 88c18 38 29 74 34 130h25l-6 -232h-25c-8 21 -19 25 -30 25c-15 0 -29 -10 -45 -18
c-12 -6 -29 -15 -58 -15c-83 0 -135 47 -177 121c-28 50 -53 113 -53 213c0 105 38 204 81 260c44 57 96 77 140 77c26 0 51 -7 72 -15c20 -8 29 -13 38 -13c7 0 22 3 26 20h26v-211z" />
    <glyph glyph-name="D" unicode="D" horiz-adv-x="521" 
d="M42 655h249c71 0 123 -48 156 -100c48 -76 53 -157 53 -222c0 -102 -18 -210 -96 -282c-42 -39 -82 -51 -123 -51h-239v22h58v611h-58v22zM208 633v-611h36c37 0 67 2 96 39c36 47 38 131 38 202v161c0 63 -2 114 -26 155c-29 50 -66 54 -99 54h-45z" />
    <glyph glyph-name="E" unicode="E" horiz-adv-x="455" 
d="M28 655h400l5 -210h-25c-2 29 -11 74 -28 110c-14 30 -47 78 -119 78h-67v-262h46c18 0 33 5 49 28c17 25 24 61 24 91h24v-262h-24c0 21 -3 49 -10 69c-17 50 -50 52 -63 52h-46v-327h67c55 0 98 40 122 81c20 34 34 80 38 114h24l-7 -217h-410v22h58v611h-58v22z" />
    <glyph glyph-name="F" unicode="F" horiz-adv-x="440" 
d="M42 655h400l5 -210h-24c-3 27 -12 76 -29 110c-24 50 -65 78 -119 78h-67v-262h47c39 0 57 41 63 59s9 41 9 60h24v-262h-24c0 20 -3 52 -9 69c-7 20 -24 52 -63 52h-47v-327h65v-22h-231v22h58v611h-58v22z" />
    <glyph glyph-name="G" unicode="G" horiz-adv-x="506" 
d="M279 272h220v-22h-49c1 -75 -10 -140 -46 -188c-41 -54 -104 -70 -138 -70c-63 0 -105 35 -131 67c-28 35 -55 83 -69 127c-13 41 -20 91 -20 137c0 65 11 127 41 193c56 124 136 147 183 147c26 0 50 -8 66 -14c15 -6 29 -13 41 -13c19 0 24 11 26 19h25v-211h-19
c-4 30 -14 73 -33 114c-32 68 -73 83 -104 83c-27 0 -62 -17 -83 -65c-12 -27 -21 -71 -21 -170v-137c0 -114 12 -170 30 -208c11 -23 28 -47 64 -47c30 0 49 17 62 42c14 29 14 56 14 81v113h-59v22z" />
    <glyph glyph-name="H" unicode="H" horiz-adv-x="544" 
d="M28 655h215v-22h-49v-276h163v276h-49v22h215v-22h-58v-611h58v-22h-215v22h49v313h-163v-313h49v-22h-215v22h58v611h-58v22z" />
    <glyph glyph-name="I" unicode="I" horiz-adv-x="275" 
d="M28 655h226v-22h-59v-611h59v-22h-226v22h59v611h-59v22z" />
    <glyph glyph-name="J" unicode="J" horiz-adv-x="361" 
d="M114 655h226v-22h-59v-380c0 -73 5 -147 -31 -201c-15 -22 -49 -60 -115 -60c-79 0 -121 64 -121 131c0 61 40 86 64 86c27 0 61 -23 61 -77c0 -49 -24 -70 -43 -75c-10 -3 -24 -4 -24 -15c0 -13 22 -28 46 -28c27 0 40 16 47 30c9 19 8 45 8 73v516h-59v22z" />
    <glyph glyph-name="K" unicode="K" horiz-adv-x="514" 
d="M42 655h225v-22h-59v-313l139 186c16 22 37 52 37 86c0 10 -2 24 -15 33c-9 6 -27 9 -39 8v22h186v-22c-32 -4 -46 -18 -62 -33c-32 -32 -45 -54 -87 -111l-47 -64l157 -403h44v-22h-213v22h54l-118 302l-36 -47v-255h59v-22h-225v22h58v611h-58v22z" />
    <glyph glyph-name="L" unicode="L" horiz-adv-x="439" 
d="M42 655h226v-22h-59v-611h52c50 0 92 30 122 81c23 39 34 80 38 114h25l-8 -217h-396v22h59v611h-59v22z" />
    <glyph glyph-name="M" unicode="M" horiz-adv-x="620" 
d="M32 655h175l110 -420l109 420h173v-22h-58v-611h58v-22h-225v22h59v580l-153 -602h-14l-155 602v-452c0 -72 10 -93 14 -101c11 -21 25 -26 41 -27v-22h-138v22c13 2 31 8 44 30c14 25 17 71 17 102v380c0 54 -5 71 -13 81c-7 9 -22 16 -44 18v22z" />
    <glyph glyph-name="N" unicode="N" horiz-adv-x="523" 
d="M46 655h146l233 -429v275c0 25 -3 80 -16 102c-7 13 -21 27 -45 30v22h138v-22c-17 0 -30 -6 -40 -27c-12 -24 -15 -76 -15 -101v-513h-17l-305 560v-402c0 -58 6 -84 15 -101c9 -18 20 -26 40 -27v-22h-138v22c26 4 39 20 45 30c13 22 16 78 16 102v380
c0 48 -3 69 -13 81c-10 13 -27 16 -44 18v22z" />
    <glyph glyph-name="O" unicode="O" horiz-adv-x="511" 
d="M29 327c0 132 45 217 94 269s97 67 135 67c59 0 104 -31 137 -67c80 -87 94 -195 94 -269c0 -40 -4 -175 -94 -270c-53 -56 -106 -65 -137 -65c-39 0 -88 16 -135 65c-38 40 -94 122 -94 270zM151 433v-214c0 -47 6 -124 35 -165c25 -35 56 -40 72 -40c30 0 58 15 75 39
c25 36 34 130 34 166v214c0 48 -11 128 -34 165c-18 29 -43 43 -75 43c-35 0 -57 -18 -73 -44c-27 -44 -34 -130 -34 -164z" />
    <glyph glyph-name="P" unicode="P" horiz-adv-x="468" 
d="M28 655h221c33 0 74 -3 108 -16c43 -17 104 -59 104 -175c0 -47 -10 -123 -85 -160c-44 -21 -107 -24 -131 -24h-50v-258h66v-22h-233v22h59v611h-59v22zM195 302h35c19 0 49 0 71 15c42 29 38 90 38 130v71c0 41 -4 90 -41 106c-12 5 -42 9 -61 9h-42v-331z" />
    <glyph glyph-name="Q" unicode="Q" horiz-adv-x="526" 
d="M123 -76l-10 13c58 48 96 58 127 60c-72 13 -127 83 -155 144c-25 55 -39 125 -39 188c0 70 15 182 94 267c34 37 78 67 135 67c51 0 96 -23 137 -67c59 -64 94 -155 94 -268c0 -82 -20 -145 -40 -188c-32 -69 -89 -136 -169 -144c16 -1 47 -7 87 -49
c37 -39 74 -93 115 -93c22 0 39 19 39 34c0 22 -21 16 -21 50c0 24 14 46 40 46c22 0 44 -16 44 -50c0 -20 -8 -33 -18 -48c-12 -19 -23 -30 -44 -43c-30 -18 -64 -28 -97 -28c-38 0 -71 10 -106 34c-30 20 -50 42 -74 65c-19 19 -43 40 -71 40c-22 0 -49 -15 -68 -30z
M168 433v-214c0 -73 9 -108 14 -125c19 -58 60 -80 93 -80c35 0 77 21 95 80c7 23 14 60 14 125v214c0 89 -12 131 -34 164c-20 30 -42 44 -75 44c-35 0 -57 -18 -74 -44c-21 -31 -33 -76 -33 -164z" />
    <glyph glyph-name="R" unicode="R" horiz-adv-x="516" 
d="M42 655h240c39 0 107 -3 149 -41c18 -16 43 -49 43 -111c0 -28 -4 -75 -38 -109c-28 -28 -71 -42 -110 -48v-9c33 -4 82 -23 106 -53c19 -24 28 -62 31 -107l5 -77c2 -31 5 -71 34 -71c6 0 13 3 19 8l8 -20c-12 -9 -35 -25 -76 -25c-38 0 -57 12 -66 22
c-5 5 -24 27 -30 98l-9 102c-2 28 -3 73 -24 96c-11 12 -29 21 -55 21h-61v-309h59v-22h-225v22h58v611h-58v22zM208 353h49c21 0 52 2 72 25c18 21 23 60 23 88v58c0 26 -1 65 -29 89c-16 13 -40 20 -64 20h-51v-280z" />
    <glyph glyph-name="S" unicode="S" horiz-adv-x="410" 
d="M336 469c-5 20 -15 55 -22 72c-10 24 -29 54 -44 70c-18 18 -38 30 -67 30c-41 0 -85 -23 -85 -95c0 -69 44 -92 70 -106l91 -50c40 -22 65 -45 87 -89c17 -34 23 -63 23 -98c0 -80 -24 -127 -49 -158c-34 -41 -66 -53 -117 -53c-31 0 -47 5 -69 14c-26 11 -39 17 -51 17
c-9 0 -26 -4 -31 -23h-30v233h21c6 -37 18 -79 30 -106c29 -64 63 -89 74 -96c21 -14 35 -17 57 -17c65 0 99 46 99 113c0 83 -51 111 -85 130l-83 46c-38 21 -61 48 -74 72c-21 37 -24 74 -24 104c0 35 5 96 49 142c18 19 50 42 98 42c22 0 40 -5 58 -13
c15 -7 26 -14 35 -14c10 0 23 8 30 19h31v-186h-22z" />
    <glyph glyph-name="T" unicode="T" horiz-adv-x="447" 
d="M173 633h-19c-58 0 -86 -63 -94 -83c-14 -33 -20 -65 -26 -107h-26l5 212h428l5 -212h-26c-5 36 -15 78 -27 107c-32 79 -75 83 -93 83h-19v-611h59v-22h-226v22h59v611z" />
    <glyph glyph-name="U" unicode="U" horiz-adv-x="524" 
d="M42 655h226v-22h-59v-462c0 -45 2 -83 21 -109c17 -23 47 -37 77 -37c23 0 60 7 90 50c31 44 29 88 29 137v289c0 59 -2 122 -61 132v22h138v-22c-29 -1 -55 -19 -55 -128v-304c0 -40 -2 -78 -21 -118c-24 -50 -70 -91 -150 -91c-95 0 -138 55 -153 82
c-27 48 -23 100 -23 142v417h-59v22z" />
    <glyph glyph-name="V" unicode="V" horiz-adv-x="437" 
d="M0 655h217v-22h-53l120 -463l79 344c3 13 6 32 6 45c0 20 -4 46 -17 60c-10 10 -26 16 -43 14v22h149v-22c-7 -1 -22 -4 -36 -20c-13 -16 -20 -41 -35 -103l-121 -518h-47l-167 641h-52v22z" />
    <glyph glyph-name="W" unicode="W" horiz-adv-x="674" 
d="M0 655h202v-22h-52l110 -463l72 287l-40 176h-41v22h205v-22h-55l110 -463l70 284c16 64 21 96 21 121c0 12 -1 41 -27 52c-8 3 -28 5 -37 6v22h157v-22c-21 -9 -34 -23 -46 -43c-17 -29 -21 -58 -31 -96l-129 -502h-44l-100 410l-106 -410h-44l-154 641h-41v22z" />
    <glyph glyph-name="X" unicode="X" horiz-adv-x="491" 
d="M15 655h208v-22h-52l107 -232l51 106c5 11 21 47 21 74c0 30 -20 53 -50 52v22h171v-22c-12 0 -38 -3 -63 -31c-6 -6 -21 -25 -50 -87l-66 -143l159 -350h46v-22h-208v22h42l-118 254l-62 -129c-7 -15 -24 -52 -24 -76c0 -23 12 -37 23 -43c10 -5 31 -6 39 -6v-22h-181
v22c15 1 36 6 56 26c7 7 23 25 51 82l85 173l-153 330h-32v22z" />
    <glyph glyph-name="Y" unicode="Y" horiz-adv-x="435" 
d="M0 655h219v-22h-54l118 -277l54 130c23 55 27 81 27 95c0 13 -2 29 -15 41c-6 6 -17 12 -32 11v22h146v-22c-33 -11 -47 -33 -62 -64s-66 -137 -113 -259v-288h59v-22h-225v22h58v280l-142 331h-38v22z" />
    <glyph glyph-name="Z" unicode="Z" horiz-adv-x="462" 
d="M441 241l-15 -241h-384l269 633h-57c-21 0 -79 -7 -117 -74c-20 -35 -35 -91 -41 -129h-26l8 225h360l-269 -633h49c28 0 85 13 132 71c35 44 57 100 66 148h25z" />
    <glyph glyph-name="bracketleft" unicode="[" horiz-adv-x="429" 
d="M359 -205v-24h-209v924h209v-24h-107v-876h107z" />
    <glyph glyph-name="backslash" unicode="\" horiz-adv-x="475" 
d="M397 -213l-369 868h50l369 -868h-50z" />
    <glyph glyph-name="bracketright" unicode="]" horiz-adv-x="429" 
d="M70 -205h107v876h-107v24h209v-924h-209v24z" />
    <glyph glyph-name="asciicircum" unicode="^" horiz-adv-x="364" 
d="M182 574l-81 -81h-84l165 165l165 -165h-84z" />
    <glyph glyph-name="underscore" unicode="_" horiz-adv-x="532" 
d="M0 -224v50h532v-50h-532z" />
    <glyph glyph-name="grave" unicode="`" horiz-adv-x="318" 
d="M171 647l97 -138h-26l-192 138h121z" />
    <glyph glyph-name="a" unicode="a" horiz-adv-x="361" 
d="M350 55l11 -10c-7 -11 -15 -20 -28 -32c-14 -13 -26 -21 -49 -21s-37 6 -51 22s-19 33 -20 45c-12 -17 -30 -37 -44 -47c-15 -11 -37 -20 -63 -20c-29 0 -52 10 -70 33c-17 22 -25 51 -25 81c0 43 16 79 38 99c37 33 127 42 162 44v113c0 27 -8 46 -22 55
c-10 6 -23 8 -34 8c-43 0 -49 -19 -49 -27c0 -15 11 -23 20 -35c9 -11 14 -25 14 -43c0 -38 -28 -59 -54 -59c-36 0 -54 37 -54 70c0 20 9 47 25 65c22 26 69 49 129 49c18 0 58 -1 84 -15c25 -13 39 -36 39 -69v-274c0 -28 -1 -49 15 -49c7 0 16 3 26 17zM211 84v145
c-26 -2 -56 -14 -70 -28c-20 -21 -22 -56 -22 -82c0 -39 1 -81 36 -81c20 0 42 27 56 46z" />
    <glyph glyph-name="b" unicode="b" horiz-adv-x="385" 
d="M136 652v-269c9 33 38 62 78 62c30 0 69 -12 105 -64c37 -54 44 -110 44 -162c0 -36 -4 -83 -21 -124c-42 -100 -109 -103 -124 -103c-26 0 -42 5 -59 26c-7 8 -17 22 -23 43v-61h-132v20h34v604h-35v20h74c22 0 45 5 59 8zM255 171v110c0 55 -9 83 -12 93
c-11 33 -31 41 -42 41c-27 0 -65 -17 -65 -145c0 -29 2 -95 4 -125c3 -43 11 -129 62 -129c11 0 27 8 37 32c14 33 16 108 16 123z" />
    <glyph glyph-name="c" unicode="c" horiz-adv-x="321" 
d="M285 132l14 -5c-5 -18 -19 -68 -46 -99c-24 -28 -48 -36 -80 -36s-75 11 -113 59c-36 45 -52 107 -52 164c0 53 14 115 47 161s80 69 117 69c32 0 66 -18 88 -43c26 -30 32 -62 32 -83c0 -57 -32 -77 -56 -77c-26 0 -53 25 -53 68c0 23 8 32 19 45c7 9 14 18 14 32
c0 18 -11 38 -39 38c-14 0 -43 -4 -55 -44c-1 -5 -6 -22 -6 -70v-157c0 -14 1 -65 10 -91c12 -32 40 -51 66 -51c28 0 48 23 62 45c17 26 26 52 31 75z" />
    <glyph glyph-name="d" unicode="d" horiz-adv-x="384" 
d="M332 652v-632h35v-20h-133v61c-4 -15 -13 -35 -26 -49c-18 -18 -37 -20 -55 -20c-30 0 -79 8 -116 85c-23 48 -29 97 -29 142c0 56 9 108 45 162c26 39 59 64 105 64c38 0 69 -30 76 -62v241h-35v20h75c16 0 31 2 58 8zM116 281v-130c0 -21 4 -71 11 -93
c10 -32 30 -42 42 -42c15 0 39 8 51 58c3 12 14 59 14 142v57c0 112 -30 142 -64 142c-14 0 -39 -14 -48 -59c-4 -20 -6 -64 -6 -75z" />
    <glyph glyph-name="e" unicode="e" horiz-adv-x="329" 
d="M287 109l13 -7c-9 -19 -25 -47 -40 -66c-17 -21 -43 -44 -87 -44c-38 0 -80 19 -114 64c-36 47 -51 110 -51 163c0 67 20 123 51 165c35 48 74 61 103 61c38 0 81 -23 111 -74c27 -46 34 -100 34 -136h-191v-91c0 -65 8 -86 11 -93c8 -19 25 -39 53 -39c30 0 54 22 64 32
c17 17 32 40 43 65zM116 255h93v46c0 14 -2 54 -5 72c-7 40 -26 52 -43 52c-39 0 -45 -41 -45 -84v-86z" />
    <glyph glyph-name="f" unicode="f" horiz-adv-x="213" 
d="M48 417c0 20 1 76 5 108c5 38 15 71 39 98c22 25 46 35 77 35c27 0 56 -8 75 -26c14 -14 25 -36 25 -62c0 -39 -24 -58 -47 -58c-25 0 -52 19 -52 55c0 18 7 32 15 40c4 5 13 11 13 18s-10 13 -22 13c-13 0 -39 -8 -39 -67c0 -13 2 -27 4 -47c3 -21 5 -45 5 -75v-32h62
v-20h-62v-377h35v-20h-167v20h34v377h-42v20h42z" />
    <glyph glyph-name="g" unicode="g" horiz-adv-x="332" 
d="M70 173c-11 -13 -20 -31 -20 -49c0 -24 19 -42 45 -41l106 5c23 1 65 3 93 -24c12 -12 28 -35 28 -79c0 -37 -10 -75 -26 -105c-17 -33 -43 -59 -74 -76c-29 -16 -59 -21 -90 -21s-122 5 -122 102c0 46 27 61 42 61c10 0 27 -4 37 -22c-12 -16 -18 -34 -18 -50
c0 -28 16 -63 72 -63c45 0 77 21 95 42c19 22 26 48 26 71c0 19 -7 37 -18 45c-13 10 -37 10 -51 9l-90 -4c-22 -1 -54 -1 -78 24c-21 22 -24 52 -24 68c0 75 41 113 51 121c-29 36 -39 70 -39 112c0 48 15 84 36 107c31 34 73 39 100 39c23 0 44 -2 66 -10c3 9 13 31 21 44
c7 11 22 29 47 29s47 -23 47 -51c0 -26 -14 -48 -36 -48c-14 0 -23 7 -29 18c-4 7 -9 19 -16 19c-8 0 -12 -11 -14 -20c13 -9 33 -25 43 -42c13 -20 19 -51 19 -79c0 -51 -18 -93 -45 -118c-31 -29 -71 -34 -99 -34c-21 0 -51 2 -85 20zM193 244v108c0 14 -3 37 -8 49
c-6 12 -14 19 -28 19s-22 -7 -28 -19c-5 -12 -8 -35 -8 -49v-108c0 -13 -1 -31 8 -47c6 -12 15 -19 28 -19s22 7 28 19c9 16 8 34 8 47z" />
    <glyph glyph-name="h" unicode="h" horiz-adv-x="381" 
d="M136 652v-279c11 20 25 37 43 52c17 14 31 20 57 20c39 0 63 -19 75 -36c8 -12 19 -35 19 -86v-303h34v-20h-161v20h29v271c0 44 -2 63 -7 78c-4 11 -11 23 -28 23c-14 0 -27 -10 -37 -21c-18 -22 -24 -53 -24 -73v-278h30v-20h-162v20h34v604h-35v20h74c15 0 29 1 59 8z
" />
    <glyph glyph-name="i" unicode="i" horiz-adv-x="191" 
d="M140 445v-425h34v-20h-167v20h35v397h-36v20h75c15 0 29 1 59 8zM37 588c0 33 23 57 51 57c26 0 50 -24 50 -57c0 -31 -24 -58 -50 -58c-21 0 -51 20 -51 58z" />
    <glyph glyph-name="j" unicode="j" horiz-adv-x="205" 
d="M149 445v-399c0 -37 -2 -77 -10 -116c-6 -28 -18 -78 -50 -105c-18 -15 -44 -26 -71 -26c-28 0 -50 12 -63 25c-14 14 -25 38 -25 69c0 51 29 70 53 70s49 -22 49 -58c0 -37 -30 -53 -30 -65c0 -10 9 -20 20 -20c10 0 23 7 29 29c4 15 5 42 5 53c0 16 -2 28 -3 57
c-1 26 -2 39 -2 49v409h-45v20h84c34 0 52 6 59 8zM42 588c0 25 17 57 50 57c23 0 50 -18 50 -57c0 -38 -27 -58 -50 -58c-27 0 -50 27 -50 58z" />
    <glyph glyph-name="k" unicode="k" horiz-adv-x="373" 
d="M137 652v-438l66 96c8 12 26 36 26 61c0 12 -7 27 -17 35s-27 11 -38 11v20h173v-20c-20 -1 -34 -8 -39 -11c-19 -11 -28 -26 -39 -41l-47 -63l123 -282h21v-20h-155v20h26l-81 185l-19 -26v-159h29v-20h-162v20h35v604h-36v20h93c10 0 30 5 41 8z" />
    <glyph glyph-name="l" unicode="l" horiz-adv-x="188" 
d="M137 652v-632h34v-20h-167v20h35v604h-36v20h75c17 0 40 3 59 8z" />
    <glyph glyph-name="m" unicode="m" horiz-adv-x="580" 
d="M140 445v-72c3 7 18 33 43 52c20 15 39 20 61 20s40 -7 54 -17c27 -19 33 -44 34 -59c11 23 31 45 45 57c18 15 34 19 57 19c39 0 63 -18 75 -35c19 -26 19 -61 19 -87v-303h35v-20h-162v20h29v271c0 28 1 53 -8 78c-4 11 -9 23 -27 23c-15 0 -29 -10 -38 -21
c-22 -28 -23 -60 -23 -73v-278h29v-20h-156v20h29v271c0 33 0 57 -8 78c-3 9 -10 23 -28 23c-12 0 -25 -7 -37 -21c-19 -23 -23 -49 -23 -73v-278h29v-20h-162v20h35v397h-36v20h94c9 0 30 5 40 8z" />
    <glyph glyph-name="n" unicode="n" horiz-adv-x="385" 
d="M140 445v-72c10 18 27 40 43 52c18 13 40 20 59 20c27 0 56 -12 72 -35c19 -27 19 -61 19 -87v-303h35v-20h-162v20h29v271c0 39 -1 60 -7 78c-4 12 -10 23 -26 23c-13 0 -28 -8 -39 -21c-22 -28 -23 -60 -23 -73v-278h29v-20h-162v20h35v397h-36v20h93c10 0 30 5 41 8z
" />
    <glyph glyph-name="o" unicode="o" horiz-adv-x="350" 
d="M8 218c0 49 14 104 41 148c38 62 83 79 119 79s81 -17 119 -79c27 -44 41 -99 41 -148c0 -46 -13 -104 -40 -148c-34 -55 -80 -78 -120 -78s-86 23 -120 78c-27 44 -40 102 -40 148zM116 310v-184c0 -19 1 -55 5 -71c9 -34 31 -43 47 -43s38 9 47 43c4 16 5 52 5 71v184
c0 52 -4 68 -5 73c-9 33 -31 42 -47 42s-38 -9 -47 -42c-1 -5 -5 -21 -5 -73z" />
    <glyph glyph-name="p" unicode="p" horiz-adv-x="385" 
d="M136 445v-70c3 13 9 30 24 46s31 24 60 24c61 0 98 -53 114 -86c21 -42 29 -103 29 -146c0 -57 -13 -114 -44 -158s-69 -63 -103 -63c-18 0 -42 5 -61 27c-6 7 -14 18 -19 34v-242h34v-20h-166v20h34v606h-35v20h93c11 0 30 5 40 8zM255 156v109c0 19 -2 83 -14 117
c-11 31 -30 39 -41 39c-16 0 -39 -15 -51 -59c-10 -38 -13 -84 -13 -199c0 -32 1 -63 10 -91c11 -35 33 -50 51 -50c16 0 38 12 48 44c8 26 10 73 10 90z" />
    <glyph glyph-name="q" unicode="q" horiz-adv-x="385" 
d="M235 445c12 -5 25 -8 39 -8h94v-20h-35v-604h34v-20h-172v20h40v240c-3 -12 -9 -23 -19 -34c-16 -18 -32 -27 -56 -27c-29 0 -70 9 -108 64c-38 54 -44 110 -44 161c0 46 6 94 29 142c36 74 91 86 123 86c15 0 34 -4 51 -23c11 -12 20 -32 24 -47v70zM116 265v-109
c0 -15 1 -55 9 -85c12 -44 38 -49 48 -49c16 0 37 12 49 46c6 17 13 47 13 104c0 111 -8 161 -14 189c-13 55 -39 60 -50 60c-12 0 -29 -10 -39 -32c-15 -32 -16 -111 -16 -124z" />
    <glyph glyph-name="r" unicode="r" horiz-adv-x="300" 
d="M140 445v-51h2c5 12 13 24 28 35c17 13 29 16 48 16c17 0 42 -3 61 -19c25 -21 28 -51 28 -67c0 -45 -25 -79 -56 -79s-58 26 -58 64c0 14 6 34 11 44c6 11 13 18 13 26s-4 11 -11 11c-22 0 -41 -20 -51 -46c-13 -33 -15 -75 -15 -98v-261h35v-20h-168v20h35v397h-36v20
h76c18 0 40 4 58 8z" />
    <glyph glyph-name="s" unicode="s" horiz-adv-x="295" 
d="M253 309h-17c-3 32 -15 62 -32 82c-18 21 -44 34 -70 34c-28 0 -56 -17 -56 -58c0 -45 36 -63 53 -69l58 -22c35 -13 54 -36 61 -47c19 -29 23 -61 23 -89c0 -44 -11 -80 -37 -110c-26 -29 -54 -38 -86 -38c-27 0 -41 6 -60 17c-16 9 -24 15 -32 15
c-11 0 -19 -10 -19 -25h-17v166h21c1 -29 8 -69 31 -103c23 -33 45 -50 79 -50c29 0 64 17 64 69c0 53 -31 68 -62 81l-53 22c-19 8 -42 21 -58 47s-19 54 -19 76c0 56 17 94 46 117c20 17 41 21 65 21c18 0 29 -3 45 -8c20 -7 30 -16 40 -16c9 0 17 6 19 17h13v-129z" />
    <glyph glyph-name="t" unicode="t" horiz-adv-x="219" 
d="M42 573l98 37v-173h59v-20h-59v-319c0 -23 1 -34 5 -43c5 -10 12 -14 23 -14c7 0 15 3 22 8l9 -19c-16 -17 -43 -38 -82 -38c-16 0 -37 3 -53 19c-19 19 -22 48 -22 76v330h-36v20h36v136z" />
    <glyph glyph-name="u" unicode="u" horiz-adv-x="385" 
d="M334 445v-425h34v-20h-132v67c-25 -50 -71 -75 -126 -75c-18 0 -42 3 -59 32c-9 15 -13 37 -13 54v339h-35v20h74c17 0 32 1 59 8v-352c0 -49 24 -56 37 -56c18 0 34 17 44 31c15 21 19 39 19 59v290h-35v20h74c33 0 50 5 59 8z" />
    <glyph glyph-name="v" unicode="v" horiz-adv-x="320" 
d="M-16 437h170v-20h-36l77 -269l45 172c3 12 8 37 8 52s-2 29 -16 38c-6 4 -15 7 -24 7v20h110v-20c-20 -4 -32 -20 -37 -30c-2 -4 -7 -14 -21 -67l-86 -320h-40l-120 417h-30v20z" />
    <glyph glyph-name="w" unicode="w" horiz-adv-x="506" 
d="M-14 437h169v-20h-34l86 -269l42 149l-35 120h-24v20h160v-20h-36l76 -269l40 138c7 23 14 48 14 80c0 12 -1 23 -10 35c-8 11 -18 16 -32 16v20h118v-20c-26 -12 -35 -31 -41 -46c-10 -23 -14 -40 -20 -59l-91 -312h-29l-81 262l-74 -262h-29l-135 417h-34v20z" />
    <glyph glyph-name="x" unicode="x" horiz-adv-x="365" 
d="M5 437h172v-20h-33l63 -144l36 69c7 13 13 30 13 45c0 8 -2 17 -7 22s-14 8 -23 8h-8v20h124v-20c-13 0 -24 -4 -32 -10c-13 -10 -21 -27 -30 -43l-60 -112l102 -232h35v-20h-185v20h39l-66 152l-56 -103c-3 -5 -6 -15 -6 -22c0 -11 6 -19 19 -24c9 -3 20 -3 27 -3v-20
h-135v20c8 0 20 2 30 6c20 8 31 24 38 37l72 128l-99 226h-30v20z" />
    <glyph glyph-name="y" unicode="y" horiz-adv-x="304" 
d="M-20 437h170v-20h-38l90 -294l53 208c3 13 5 24 5 38c0 16 -2 28 -14 38c-10 9 -22 10 -30 10h-10v20h134v-20h-6c-16 0 -27 -12 -33 -21c-14 -20 -23 -51 -26 -63l-88 -345c-21 -81 -38 -122 -57 -152c-20 -31 -40 -44 -71 -44c-33 0 -54 17 -65 31
c-20 24 -22 50 -22 64c0 57 39 77 62 77c26 0 49 -25 49 -58c0 -14 -4 -22 -10 -33c-8 -15 -14 -26 -14 -37c0 -17 14 -18 18 -18c21 0 37 31 45 46c12 24 21 45 30 73l-145 480h-27v20z" />
    <glyph glyph-name="z" unicode="z" horiz-adv-x="307" 
d="M9 257l7 180h264l-160 -417h29c42 0 75 38 77 40c17 19 36 54 46 121h18l-6 -181h-284l158 417c-30 2 -71 -5 -98 -50c-18 -29 -29 -81 -33 -110h-18z" />
    <glyph glyph-name="braceleft" unicode="{" horiz-adv-x="356" 
d="M295 728l5 -34c-22 -4 -36 -14 -46 -23c-26 -24 -32 -57 -32 -98c0 -50 6 -34 6 -105c0 -42 -5 -98 -39 -143c-18 -24 -50 -49 -82 -65c28 -13 58 -34 80 -62c38 -48 41 -102 41 -149c0 -64 -6 -47 -6 -107c0 -25 4 -53 17 -74c6 -9 23 -36 61 -41l-5 -34
c-58 6 -98 30 -124 75c-13 22 -27 57 -27 109c0 36 6 51 6 98c0 50 -7 94 -32 130c-12 17 -29 33 -62 35v41c32 3 56 17 72 45c22 38 21 92 21 129c0 29 -3 57 -3 86c0 48 7 126 75 164c23 13 57 20 74 23z" />
    <glyph glyph-name="bar" unicode="|" horiz-adv-x="512" 
d="M231 -224v1053h50v-1053h-50z" />
    <glyph glyph-name="braceright" unicode="}" horiz-adv-x="356" 
d="M56 694l5 34c17 -3 51 -10 74 -23c68 -38 75 -116 75 -164c0 -29 -3 -57 -3 -86c0 -37 -1 -91 21 -129c16 -28 40 -42 72 -45v-41c-33 -2 -50 -18 -62 -35c-25 -36 -32 -80 -32 -130c0 -47 6 -62 6 -98c0 -52 -14 -87 -27 -109c-26 -45 -66 -69 -124 -75l-5 34
c38 5 55 32 61 41c13 21 17 49 17 74c0 60 -6 43 -6 107c0 47 3 101 41 149c22 28 52 49 80 62c-32 16 -64 41 -82 65c-34 45 -39 101 -39 143c0 71 6 55 6 105c0 41 -6 74 -32 98c-10 9 -24 19 -46 23z" />
    <glyph glyph-name="asciitilde" unicode="~" horiz-adv-x="518" 
d="M449 367h27c-5 -11 -18 -36 -34 -57s-45 -48 -93 -48c-23 0 -51 7 -99 18c-68 15 -93 17 -108 17c-14 0 -27 -3 -39 -12c-7 -6 -15 -16 -19 -24h-28c7 15 21 41 44 65c28 29 57 44 98 44c25 0 62 -7 91 -15c48 -13 76 -24 100 -24c16 0 32 6 43 15c7 6 14 17 17 21z" />
    <glyph glyph-name="afii10051" unicode="&#x402;" horiz-adv-x="610" 
d="M191 633h-29c-52 0 -80 -48 -94 -80c-11 -25 -24 -68 -26 -102h-20l5 204h436l5 -204h-20c-7 51 -19 84 -27 102c-30 69 -68 80 -93 80h-29v-292c51 37 106 43 137 43c55 0 103 -21 134 -64c27 -37 39 -92 39 -139c0 -50 -13 -91 -49 -132c-37 -42 -77 -57 -113 -57
c-30 0 -67 11 -90 49c-11 19 -21 54 -21 80c0 49 29 70 57 70s50 -25 50 -62c0 -18 -5 -51 -41 -57c-9 -2 -22 -2 -22 -16c0 -6 10 -20 14 -24c9 -9 16 -11 26 -11c32 0 48 16 57 41c7 20 10 45 10 92c0 85 -9 132 -31 162c-22 29 -51 37 -75 37c-25 0 -58 -11 -82 -40v-313
h-167v22h59v611z" />
    <glyph glyph-name="quotesinglbase" unicode="&#x201a;" horiz-adv-x="285" 
d="M112 -152l-12 17c22 15 42 36 54 56c8 14 18 39 18 57c0 19 -11 23 -16 23s-9 -4 -14 -7c-6 -4 -13 -5 -20 -5c-32 0 -52 21 -52 52c0 39 29 57 56 57c19 0 41 -9 56 -29c17 -22 19 -47 19 -66c0 -21 -3 -55 -30 -95c-16 -23 -38 -44 -59 -60z" />
    <glyph glyph-name="quotedblbase" unicode="&#x201e;" horiz-adv-x="538" 
d="M140 -152l-12 17c22 15 42 36 54 56c8 14 18 39 18 57c0 19 -11 23 -16 23s-9 -4 -14 -7c-6 -4 -13 -5 -20 -5c-32 0 -52 21 -52 52c0 39 29 57 56 57c19 0 41 -9 56 -29c17 -22 19 -47 19 -66c0 -21 -3 -55 -30 -95c-16 -23 -38 -44 -59 -60zM337 -152l-12 17
c22 15 42 36 54 56c8 14 18 39 18 57c0 19 -11 23 -16 23s-9 -4 -14 -7c-6 -4 -13 -5 -20 -5c-32 0 -52 21 -52 52c0 39 29 57 56 57c19 0 41 -9 56 -29c17 -22 19 -47 19 -66c0 -21 -3 -55 -30 -95c-16 -23 -38 -44 -59 -60z" />
    <glyph glyph-name="ellipsis" unicode="&#x2026;" horiz-adv-x="714" 
d="M56 42c0 30 26 56 56 56s56 -26 56 -56c0 -23 -18 -56 -56 -56s-56 33 -56 56zM294 42c0 30 26 56 56 56s56 -26 56 -56c0 -23 -18 -56 -56 -56s-56 33 -56 56zM532 42c0 30 26 56 56 56s56 -26 56 -56c0 -23 -18 -56 -56 -56s-56 33 -56 56z" />
    <glyph glyph-name="dagger" unicode="&#x2020;" horiz-adv-x="576" 
d="M275 411v14c0 22 -1 45 -21 104c-11 34 -22 59 -22 83c0 26 11 58 56 58s56 -32 56 -58c0 -24 -11 -49 -22 -83c-20 -59 -21 -82 -21 -104v-14c7 -1 36 -4 108 20c23 8 44 19 69 19c46 0 56 -37 56 -63c0 -31 -24 -51 -52 -51c-25 0 -54 12 -81 23c-48 20 -73 23 -100 20
v-34c0 -83 6 -149 15 -238c13 -137 29 -177 29 -247c0 -22 -1 -86 -58 -86c-54 0 -56 62 -56 84c0 78 18 149 29 249c8 74 15 156 15 238v34c-27 3 -52 0 -100 -20c-28 -11 -55 -23 -80 -23c-33 0 -53 24 -53 57c0 26 14 57 56 57c22 0 41 -10 69 -19c69 -22 93 -22 108 -20
z" />
    <glyph glyph-name="daggerdbl" unicode="&#x2021;" horiz-adv-x="512" 
d="M268 485v-31c0 -62 1 -116 40 -194c-39 -78 -40 -132 -40 -194v-31c37 -2 62 6 89 17c23 10 44 21 67 21c43 0 46 -32 46 -51c0 -49 -35 -51 -46 -51c-16 0 -33 9 -58 17c-17 5 -66 20 -98 18v-13c0 -22 2 -35 20 -88c13 -37 20 -58 20 -76c0 -24 -15 -49 -52 -49
s-52 25 -52 49c0 18 7 39 20 76c18 53 20 66 20 88v13c-12 1 -38 0 -98 -18c-26 -8 -44 -17 -58 -17c-19 0 -46 10 -46 51c0 19 3 51 46 51c23 0 44 -11 67 -21c27 -11 52 -19 89 -17v31c0 62 -1 116 -40 194c39 78 40 132 40 194v31c-37 2 -62 -6 -89 -17
c-23 -10 -44 -21 -67 -21c-43 0 -46 32 -46 51c0 41 27 51 46 51c15 0 33 -9 58 -17c17 -5 66 -20 98 -18v13c0 22 -2 35 -20 88c-13 37 -20 58 -20 76c0 24 15 49 52 49s52 -25 52 -49c0 -18 -7 -39 -20 -76c-18 -53 -20 -66 -20 -88v-13c12 -1 38 0 98 18
c26 8 44 17 58 17c11 0 46 -3 46 -51c0 -19 -3 -51 -46 -51c-23 0 -44 11 -67 21c-27 11 -52 19 -89 17z" />
    <glyph glyph-name="accent" horiz-adv-x="2" 
d="M-133 647h121l-192 -138h-26z" />
    <glyph glyph-name="perthousand" unicode="&#x2030;" horiz-adv-x="1140" 
d="M112 518c0 62 17 107 44 141c22 28 49 48 89 48c37 0 67 -16 92 -48c40 -51 43 -114 43 -140c0 -51 -13 -102 -43 -141c-25 -32 -55 -48 -92 -48c-40 0 -67 20 -89 48c-32 40 -44 89 -44 140zM203 610v-183c0 -23 2 -40 9 -53c9 -16 22 -24 34 -24c10 0 24 4 33 23
c6 13 10 37 10 54v183c0 17 -4 41 -10 54c-9 18 -23 23 -34 23c-13 0 -26 -10 -33 -24c-6 -11 -9 -37 -9 -53zM211 -178l-28 18l393 943l27 -17zM408 91c0 62 17 107 44 141c22 28 49 48 89 48c37 0 67 -16 92 -48c40 -51 43 -114 43 -140c0 -51 -13 -102 -43 -141
c-25 -32 -55 -48 -92 -48c-40 0 -67 20 -89 48c-32 40 -44 89 -44 140zM499 183v-183c0 -23 2 -40 9 -53c7 -14 20 -24 33 -24c11 0 25 5 34 23c6 13 10 37 10 54v183c0 17 -4 41 -10 54c-9 18 -23 23 -34 23c-13 0 -26 -10 -33 -24c-6 -11 -9 -37 -9 -53zM746 91
c0 62 17 107 44 141c22 28 49 48 89 48c37 0 67 -16 92 -48c40 -51 43 -114 43 -140c0 -51 -13 -102 -43 -141c-25 -32 -55 -48 -92 -48c-40 0 -67 20 -89 48c-32 40 -44 89 -44 140zM837 183v-183c0 -23 2 -40 9 -53c7 -14 20 -24 33 -24c11 0 25 5 34 23c6 13 10 37 10 54
v183c0 17 -4 41 -10 54c-9 18 -23 23 -34 23c-13 0 -26 -10 -33 -24c-6 -11 -9 -37 -9 -53z" />
    <glyph glyph-name="afii10058" unicode="&#x409;" horiz-adv-x="696" 
d="M100 655h412v-22h-58v-259h29c84 0 136 -32 163 -61c21 -23 43 -65 43 -129c0 -45 -12 -99 -44 -133c-44 -48 -113 -51 -150 -51h-208v22h59v611h-65c-12 0 -37 -2 -55 -20c-21 -22 -21 -61 -21 -125c0 -61 -3 -133 -4 -195c-3 -143 -6 -195 -11 -221
c-9 -49 -35 -80 -78 -80c-32 0 -53 15 -66 29c-19 21 -29 49 -29 76c0 52 29 84 66 84c29 0 59 -25 59 -74c0 -22 -6 -31 -14 -46c-7 -13 -16 -21 -16 -29c0 -7 6 -18 15 -18c7 0 35 2 43 73c5 40 6 89 7 110c1 45 4 152 4 178l1 142c0 57 -8 78 -11 84
c-13 27 -36 32 -56 32h-15v22zM454 22h25c16 0 52 2 72 35c13 21 16 63 16 91v78c0 8 0 67 -16 92c-8 13 -28 34 -68 34h-29v-330z" />
    <glyph glyph-name="guilsinglleft" unicode="&#x2039;" horiz-adv-x="306" 
d="M278 11l-9 -8c-75 87 -157 156 -241 209c84 52 167 120 241 209l9 -8c-40 -70 -87 -137 -139 -201c52 -64 99 -131 139 -201z" />
    <glyph glyph-name="afii10059" unicode="&#x40a;" horiz-adv-x="721" 
d="M42 655h215v-22h-48v-266h162v266h-49v22h216v-22h-59v-266h29c84 0 137 -32 163 -61s43 -74 43 -123c0 -47 -15 -99 -46 -132c-45 -48 -107 -51 -148 -51h-208h10v22h49v323h-162v-323h48v-22h-215v22h59v611h-59v22zM479 22h25c16 0 52 2 72 35c13 21 16 63 16 91v71
c0 8 0 67 -16 92c-8 13 -28 34 -68 34h-29v-323z" />
    <glyph glyph-name="afii10060" unicode="&#x40b;" horiz-adv-x="599" 
d="M190 633h-28c-53 0 -81 -48 -94 -79c-14 -34 -23 -71 -27 -102h-19l4 203h436l5 -203h-20c-4 30 -13 70 -27 102c-18 41 -49 79 -93 79h-29v-288c36 26 91 49 134 49c35 0 69 -16 88 -40s27 -64 27 -130v-202h59v-22h-216v22h49v215c0 61 -5 78 -7 83
c-7 20 -26 36 -51 36c-24 0 -60 -17 -83 -33v-301h49v-22h-215v22h58v611z" />
    <glyph glyph-name="afii10145" unicode="&#x40f;" horiz-adv-x="561" 
d="M42 655h216v-22h-49v-611h164v611h-49v22h216v-22h-59v-611h59v-22h-189c-19 -32 -27 -59 -34 -92c-6 -30 -13 -76 -16 -114h-20c-1 31 -6 80 -14 113c-8 30 -24 69 -36 93h-189v22h59v611h-59v22z" />
    <glyph glyph-name="afii10099" unicode="&#x452;" horiz-adv-x="347" 
d="M127 652v-134h132v-20h-132v-132c3 6 13 29 29 47c11 13 32 32 64 32c39 0 60 -26 74 -53s31 -76 31 -165c0 -73 -12 -125 -21 -156c-17 -56 -43 -101 -68 -140c-40 -64 -63 -95 -84 -121l-10 11c14 23 25 47 34 70c9 25 24 72 29 98c11 54 12 141 12 160v149
c0 19 -2 54 -8 70c-7 20 -20 24 -28 24c-14 0 -30 -14 -42 -37c-9 -18 -13 -36 -12 -57v-278h29v-20h-161v20h34v478h-35v20h35v106h-35v20h74c14 0 32 1 59 8z" />
    <glyph glyph-name="quoteleft" unicode="&#x2018;" horiz-adv-x="299" 
d="M173 663l12 -17c-22 -15 -42 -36 -54 -56c-8 -14 -18 -39 -18 -57c0 -19 11 -23 16 -23s9 4 14 7c6 4 13 5 20 5c32 0 52 -21 52 -52c0 -39 -29 -57 -56 -57c-19 0 -41 9 -56 29c-17 22 -19 47 -19 66c0 21 3 55 30 95c16 23 38 44 59 60z" />
    <glyph glyph-name="quoteright" unicode="&#x2019;" horiz-adv-x="285" 
d="M112 413l-12 17c22 15 42 36 54 56c8 14 18 39 18 57c0 19 -11 23 -16 23s-9 -4 -14 -7c-6 -4 -13 -5 -20 -5c-32 0 -52 21 -52 52c0 39 29 57 56 57c19 0 41 -9 56 -29c17 -22 19 -47 19 -66c0 -21 -3 -55 -30 -95c-16 -23 -38 -44 -59 -60z" />
    <glyph glyph-name="quotedblleft" unicode="&#x201c;" horiz-adv-x="538" 
d="M187 665l12 -17c-22 -15 -42 -36 -54 -56c-8 -14 -18 -39 -18 -57c0 -19 11 -23 16 -23s9 4 14 7c6 4 13 5 20 5c32 0 52 -21 52 -52c0 -39 -29 -57 -56 -57c-19 0 -41 9 -56 29c-17 22 -19 47 -19 66c0 21 3 55 30 95c16 23 38 44 59 60zM384 665l12 -17
c-22 -15 -42 -36 -54 -56c-8 -14 -18 -39 -18 -57c0 -19 11 -23 16 -23s9 4 14 7c6 4 13 5 20 5c32 0 52 -21 52 -52c0 -39 -29 -57 -56 -57c-19 0 -41 9 -56 29c-17 22 -19 47 -19 66c0 21 3 55 30 95c16 23 38 44 59 60z" />
    <glyph glyph-name="quotedblright" unicode="&#x201d;" horiz-adv-x="552" 
d="M154 415l-12 17c22 15 42 36 54 56c8 14 18 39 18 57c0 19 -11 23 -16 23s-9 -4 -14 -7c-6 -4 -13 -5 -20 -5c-32 0 -52 21 -52 52c0 39 29 57 56 57c19 0 41 -9 56 -29c17 -22 19 -47 19 -66c0 -21 -3 -55 -30 -95c-16 -23 -38 -44 -59 -60zM351 415l-12 17
c22 15 42 36 54 56c8 14 18 39 18 57c0 19 -11 23 -16 23s-9 -4 -14 -7c-6 -4 -13 -5 -20 -5c-32 0 -52 21 -52 52c0 39 29 57 56 57c19 0 41 -9 56 -29c17 -22 19 -47 19 -66c0 -21 -3 -55 -30 -95c-16 -23 -38 -44 -59 -60z" />
    <glyph glyph-name="bullet" unicode="&#x2022;" horiz-adv-x="308" 
d="M56 350c0 54 44 98 98 98s98 -44 98 -98s-44 -98 -98 -98s-98 44 -98 98z" />
    <glyph glyph-name="endash" unicode="&#x2013;" horiz-adv-x="698" 
d="M49 336h600v-42h-600v42z" />
    <glyph glyph-name="emdash" unicode="&#x2014;" horiz-adv-x="969" 
d="M913 336v-32h-871v32h871z" />
    <glyph glyph-name="Accent" horiz-adv-x="2" 
d="M-188 836h121l-192 -138h-26z" />
    <glyph glyph-name="trademark" unicode="&#x2122;" horiz-adv-x="588" 
d="M127 429v219h-13c-12 0 -34 -2 -48 -22c-9 -12 -11 -25 -14 -44h-10l2 73h206l2 -73h-10c-3 19 -5 32 -14 44c-6 9 -19 22 -48 22h-13v-219h27v-7h-94v7h27zM412 475l67 180h67v-7h-27v-219h27v-7h-95v7h28v205l-79 -216h-7l-82 214v-173c0 -7 2 -14 5 -19
c4 -5 12 -11 19 -11h3v-7h-63v7h7c9 0 14 6 17 12c3 5 4 13 4 18v169c0 2 0 5 -1 7c0 2 -1 4 -2 6c-4 7 -13 7 -18 7h-6v7h67z" />
    <glyph glyph-name="afii10106" unicode="&#x459;" horiz-adv-x="521" 
d="M65 437h292v-20h-34v-149h22c25 0 77 -2 115 -31c20 -15 47 -45 47 -97c0 -39 -15 -84 -40 -109c-27 -28 -58 -31 -83 -31h-193v20h34v397h-59c-7 0 -16 -2 -22 -17c-4 -10 -4 -22 -5 -45l-4 -165c-2 -86 -1 -124 -14 -153c-14 -31 -39 -45 -65 -45c-36 0 -64 29 -67 68
c-4 47 26 69 51 69c17 0 37 -13 36 -56c0 -12 0 -33 17 -33c22 0 21 42 22 68c1 13 2 57 2 77l3 170c1 34 -4 44 -8 49c-9 12 -24 13 -34 13h-13v20zM323 248v-228h25c14 0 36 -1 45 27c4 12 6 28 6 64v49c0 12 -1 36 -6 52c-10 30 -29 36 -50 36h-20z" />
    <glyph glyph-name="guilsinglright" unicode="&#x203a;" horiz-adv-x="306" 
d="M28 413l9 8c73 -89 155 -157 241 -209c-86 -53 -168 -122 -241 -209l-9 8c39 70 85 137 138 201c-53 64 -99 131 -138 201z" />
    <glyph glyph-name="afii10107" unicode="&#x45a;" horiz-adv-x="532" 
d="M6 437h162v-20h-29v-178h97v178h-30v20h162v-20h-34v-149h22c23 0 78 -2 116 -31c18 -14 46 -44 46 -101c0 -39 -13 -78 -40 -105c-25 -25 -50 -31 -82 -31h-190v20h30v199h-97v-199h29v-20h-162v20h35v397h-35v20zM334 248v-228h20c18 0 42 -1 51 29c2 8 5 22 5 62v49
c0 12 -1 36 -6 52c-10 30 -27 36 -50 36h-20z" />
    <glyph glyph-name="afii10108" unicode="&#x45b;" horiz-adv-x="372" 
d="M127 652v-134h132v-20h-132v-130c6 10 21 34 45 55c16 14 32 22 60 22c38 0 60 -20 70 -34c7 -10 19 -34 19 -88v-303h34v-20h-161v20h29v271c0 44 -2 63 -7 78c-4 11 -11 23 -28 23c-14 0 -30 -11 -38 -21c-14 -17 -23 -48 -23 -73v-278h30v-20h-162v20h34v478h-35v20
h35v106h-35v20h91c11 0 29 4 42 8z" />
    <glyph glyph-name="afii10193" unicode="&#x45f;" horiz-adv-x="396" 
d="M244 20v397h-29v20h161v-20h-34v-397h34v-20h-135c-12 -21 -18 -39 -23 -61c-4 -18 -10 -47 -13 -101h-14c-3 50 -9 78 -15 100c-5 19 -10 37 -21 62h-135v20h34v397h-34v20h161v-20h-29v-397h92z" />
    <glyph glyph-name="afii10057" unicode="&#x408;" horiz-adv-x="361" 
d="M114 655h226v-22h-59v-380c0 -73 5 -147 -31 -201c-15 -22 -49 -60 -115 -60c-79 0 -121 64 -121 131c0 61 40 86 64 86c27 0 61 -23 61 -77c0 -49 -24 -70 -43 -75c-10 -3 -24 -4 -24 -15c0 -13 22 -28 46 -28c27 0 40 16 47 30c9 19 8 45 8 73v516h-59v22z" />
    <glyph glyph-name="currency" unicode="&#xa4;" horiz-adv-x="774" 
d="M664 662l40 -40l-101 -100c17 -20 64 -83 64 -177s-47 -157 -64 -177l101 -100l-40 -40l-100 101c-20 -17 -83 -64 -177 -64s-157 47 -177 64l-100 -101l-40 40l101 100c-17 20 -64 83 -64 177s47 157 64 177l-101 100l40 40l100 -101c20 17 83 64 177 64
s157 -47 177 -64zM163 345c0 -126 100 -230 224 -230s224 104 224 230s-100 230 -224 230s-224 -104 -224 -230z" />
    <glyph glyph-name="afii10050" unicode="&#x490;" horiz-adv-x="396" 
d="M42 655h229c19 0 43 -2 66 39c14 24 28 62 35 88h20v-199h-19c-2 12 -12 34 -24 43c-11 8 -25 7 -37 7h-103v-611h59v-22h-226v22h59v611h-59v22z" />
    <glyph glyph-name="brokenbar" unicode="&#xa6;" horiz-adv-x="512" 
d="M231 -220v400h50v-400h-50zM281 780v-400h-50v400h50z" />
    <glyph glyph-name="section" unicode="&#xa7;" horiz-adv-x="448" 
d="M131 415c-23 31 -34 64 -34 108c0 100 66 171 149 171c34 0 73 -16 95 -35c25 -21 41 -55 41 -92c0 -35 -16 -82 -61 -82c-36 0 -60 30 -60 74c0 25 10 41 20 51c8 8 20 17 20 31s-22 31 -53 31c-21 0 -45 -8 -62 -23c-13 -12 -26 -32 -26 -64c0 -27 8 -51 26 -72
c21 -25 56 -44 92 -68c33 -22 70 -50 91 -89c15 -27 23 -61 23 -94c0 -72 -32 -136 -68 -181c33 -41 38 -81 38 -135c0 -119 -83 -167 -149 -167c-35 0 -78 14 -108 42c-33 30 -37 62 -37 86c0 59 31 85 62 85c34 0 59 -28 59 -71c0 -24 -9 -40 -17 -49
c-13 -15 -25 -16 -25 -32c0 -20 23 -39 63 -39c28 0 50 9 69 31c17 20 24 42 24 66c0 65 -41 90 -75 110c-52 30 -95 53 -125 89s-47 91 -47 148c0 52 18 118 75 170zM144 401c-28 -27 -45 -62 -45 -91c0 -25 9 -60 48 -98c13 -13 37 -32 161 -120c31 45 37 76 37 97
c0 52 -40 85 -68 108c-94 75 -34 23 -133 104z" />
    <glyph glyph-name="afii10023" unicode="&#x401;" horiz-adv-x="455" 
d="M28 655h400l5 -210h-25c-2 29 -11 74 -28 110c-14 30 -47 78 -119 78h-67v-262h46c18 0 33 5 49 28c17 25 24 61 24 91h24v-262h-24c0 21 -3 49 -10 69c-17 50 -50 52 -63 52h-46v-327h67c55 0 98 40 122 81c20 34 34 80 38 114h24l-7 -217h-410v22h58v611h-58v22z
M109 766c0 50 47 50 52 50c6 0 52 0 52 -50c0 -31 -17 -51 -52 -51c-34 0 -52 22 -52 51zM274 766c0 50 47 50 52 50c6 0 52 0 52 -50c0 -31 -18 -51 -52 -51s-52 22 -52 51z" />
    <glyph glyph-name="copyright" unicode="&#xa9;" horiz-adv-x="764" 
d="M42 327c0 187 153 340 340 340s340 -153 340 -340s-153 -340 -340 -340s-340 153 -340 340zM70 327c0 -172 140 -312 312 -312s312 140 312 312s-140 312 -312 312s-312 -140 -312 -312zM504 406h-17c-4 23 -14 55 -27 74c-21 32 -52 39 -78 39c-50 0 -70 -32 -81 -56
c-22 -47 -22 -91 -22 -131c0 -39 1 -96 25 -142c28 -53 75 -55 82 -55c33 0 70 24 89 50c14 19 26 50 32 75h17l-5 -137h-17c1 18 -15 19 -22 19c-11 0 -18 -6 -36 -13c-25 -9 -47 -13 -66 -13c-51 0 -107 20 -142 64c-27 34 -46 86 -46 138c0 49 14 109 49 153
c35 43 82 67 147 67c27 0 40 -3 53 -7s20 -6 27 -6c12 0 16 8 17 13h15z" />
    <glyph glyph-name="afii10053" unicode="&#x404;" horiz-adv-x="439" 
d="M161 357h188v-22h-188v-69c0 -49 5 -139 21 -184c9 -25 31 -68 83 -68c48 0 66 27 66 49c0 18 -12 32 -21 44s-17 26 -17 44c0 40 29 68 59 68c28 0 61 -27 61 -81c0 -40 -16 -75 -41 -100c-21 -21 -59 -46 -118 -46s-106 27 -144 81c-46 66 -71 167 -71 261
c0 69 11 199 88 277c37 38 76 52 115 52c20 0 43 -5 62 -14c10 -5 21 -13 33 -13c10 0 22 5 27 19h27l9 -205h-25c-6 36 -15 67 -26 96c-33 86 -84 95 -103 95c-51 0 -68 -51 -73 -69c-9 -32 -12 -69 -12 -119v-96z" />
    <glyph glyph-name="guillemotleft" unicode="&#xab;" horiz-adv-x="442" 
d="M322 -46l-11 -9c-92 108 -193 192 -297 258c104 65 205 148 297 258l11 -10c-48 -88 -105 -171 -171 -248c66 -78 123 -161 171 -249zM414 68l-13 -5c-47 53 -103 101 -170 140c67 41 123 88 170 140l13 -5c-23 -50 -52 -95 -86 -135c34 -39 63 -84 86 -135z" />
    <glyph glyph-name="logicalnot" unicode="&#xac;" horiz-adv-x="751" 
d="M709 290v-192h-46v150h-621v42h667z" />
    <glyph glyph-name="hyphen" unicode="-" horiz-adv-x="336" 
d="M56 210v45h210v-45h-210z" />
    <glyph glyph-name="hyphen" unicode="&#xad;" horiz-adv-x="336" 
d="M56 210v45h210v-45h-210z" />
    <glyph glyph-name="registered" unicode="&#xae;" horiz-adv-x="770" 
d="M45 327c0 187 153 340 340 340s340 -153 340 -340s-153 -340 -340 -340s-340 153 -340 340zM73 327c0 -172 140 -312 312 -312s312 140 312 312s-140 312 -312 312s-312 -140 -312 -312zM208 511h162c45 0 85 -2 116 -17c37 -19 47 -47 47 -65c0 -31 -16 -50 -31 -61
c-24 -17 -52 -24 -85 -29v-3c13 -3 31 -8 49 -16c22 -10 40 -22 48 -48c3 -11 5 -23 10 -76c2 -19 2 -41 18 -41c8 0 23 13 29 20l9 -10c-22 -25 -48 -30 -68 -30c-14 0 -59 0 -70 53c-6 29 -6 86 -17 113c-12 30 -38 30 -56 30h-37v-179h43v-11h-167v11h44v348h-44v11z
M332 342h31c23 0 49 2 67 25c12 15 15 35 15 62c0 22 -3 47 -23 60c-14 9 -41 11 -55 11h-35v-158z" />
    <glyph glyph-name="degree" unicode="&#xb0;" horiz-adv-x="308" 
d="M56 578c0 54 44 98 98 98s98 -44 98 -98s-44 -98 -98 -98s-98 44 -98 98zM95 578c0 -32 27 -59 59 -59s59 27 59 59s-27 59 -59 59s-59 -27 -59 -59z" />
    <glyph glyph-name="plusminus" unicode="&#xb1;" horiz-adv-x="672" 
d="M358 176h-42v151h-246v42h246v194h42v-194h244v-42h-244v-151zM70 58v42h532v-42h-532z" />
    <glyph glyph-name="afii10055" unicode="&#x406;" horiz-adv-x="275" 
d="M28 655h226v-22h-59v-611h59v-22h-226v22h59v611h-59v22z" />
    <glyph glyph-name="afii10103" unicode="&#x456;" horiz-adv-x="191" 
d="M140 445v-425h34v-20h-167v20h35v397h-36v20h75c15 0 29 1 59 8zM37 588c0 33 23 57 51 57c26 0 50 -24 50 -57c0 -31 -24 -58 -50 -58c-21 0 -51 20 -51 58z" />
    <glyph glyph-name="afii10098" unicode="&#x491;" horiz-adv-x="282" 
d="M6 437h133c25 0 67 0 93 56c10 22 21 64 25 94h17v-170h-135v-397h40v-20h-173v20h35v397h-35v20z" />
    <glyph glyph-name="mu" unicode="&#xb5;" horiz-adv-x="394" 
d="M327 437v-366c0 -18 -1 -35 15 -35c8 0 19 11 24 19l11 -10c-6 -9 -15 -21 -25 -30c-16 -15 -35 -23 -56 -23c-18 0 -33 6 -47 22c-10 12 -18 28 -20 45c-16 -34 -41 -67 -78 -67c-20 0 -47 10 -64 40h-8c11 -61 15 -84 17 -93c8 -39 15 -70 15 -98
c0 -39 -14 -67 -53 -67c-21 0 -55 9 -55 63c0 23 7 48 15 112c8 65 13 90 13 170v318h98v-327c0 -14 0 -32 9 -49s23 -25 35 -25c15 0 34 15 43 35c7 14 13 42 13 56v310h98z" />
    <glyph glyph-name="mu" unicode="&#x3bc;" horiz-adv-x="394" 
d="M327 437v-366c0 -18 -1 -35 15 -35c8 0 19 11 24 19l11 -10c-6 -9 -15 -21 -25 -30c-16 -15 -35 -23 -56 -23c-18 0 -33 6 -47 22c-10 12 -18 28 -20 45c-16 -34 -41 -67 -78 -67c-20 0 -47 10 -64 40h-8c11 -61 15 -84 17 -93c8 -39 15 -70 15 -98
c0 -39 -14 -67 -53 -67c-21 0 -55 9 -55 63c0 23 7 48 15 112c8 65 13 90 13 170v318h98v-327c0 -14 0 -32 9 -49s23 -25 35 -25c15 0 34 15 43 35c7 14 13 42 13 56v310h98z" />
    <glyph glyph-name="paragraph" unicode="&#xb6;" horiz-adv-x="469" 
d="M209 -213v529c-115 2 -175 94 -175 169s61 170 175 170h50v-868h-50zM349 -213v868h50v-868h-50z" />
    <glyph glyph-name="periodcentered" unicode="&#xb7;" horiz-adv-x="238" 
d="M56 346c0 30 26 56 56 56s56 -26 56 -56c0 -23 -18 -56 -56 -56s-56 33 -56 56z" />
    <glyph glyph-name="periodcentered" unicode="&#x2219;" horiz-adv-x="238" 
d="M56 346c0 30 26 56 56 56s56 -26 56 -56c0 -23 -18 -56 -56 -56s-56 33 -56 56z" />
    <glyph glyph-name="afii10071" unicode="&#x451;" horiz-adv-x="329" 
d="M287 109l13 -7c-9 -19 -25 -47 -40 -66c-17 -21 -43 -44 -87 -44c-38 0 -80 19 -114 64c-36 47 -51 110 -51 163c0 67 20 123 51 165c35 48 74 61 103 61c38 0 81 -23 111 -74c27 -46 34 -100 34 -136h-191v-91c0 -65 8 -86 11 -93c8 -19 25 -39 53 -39c30 0 54 22 64 32
c17 17 32 40 43 65zM116 255h93v46c0 14 -2 54 -5 72c-7 40 -26 52 -43 52c-39 0 -45 -41 -45 -84v-86zM31 588c0 33 23 57 51 57c33 0 50 -32 50 -57c0 -31 -23 -58 -50 -58c-28 0 -51 27 -51 58zM182 588c0 25 17 57 50 57c28 0 51 -24 51 -57c0 -31 -23 -58 -51 -58
c-27 0 -50 27 -50 58z" />
    <glyph glyph-name="afii61352" unicode="&#x2116;" horiz-adv-x="823" 
d="M138 655h172l187 -417v311c0 25 4 58 20 81c16 25 38 33 68 33s53 -9 72 -37c21 -31 21 -65 21 -68c0 -50 -29 -73 -60 -73c-25 0 -51 19 -51 62c0 20 4 30 13 45c7 11 13 19 13 28s-6 21 -23 21c-11 0 -25 -6 -36 -27c-9 -18 -15 -41 -15 -89v-533h-39l-255 585v-444
c0 -37 -1 -80 -24 -111c-13 -17 -33 -30 -61 -30c-27 0 -53 13 -69 28c-14 14 -29 37 -29 72c0 51 24 79 56 79c30 0 53 -23 53 -58c0 -25 -10 -41 -14 -48c-6 -8 -14 -17 -14 -27c0 -12 8 -25 24 -25c13 0 27 6 39 30c10 21 14 47 14 87v430c0 15 -2 37 -8 50
c-11 22 -28 23 -42 23h-12v22zM674 68c-28 0 -60 16 -85 56c-23 37 -34 90 -34 131c0 43 12 89 37 126c28 42 60 53 81 53c23 0 57 -9 86 -54c27 -41 34 -82 34 -119c0 -36 -2 -76 -27 -123c-31 -58 -70 -70 -92 -70zM640 360v-217c0 -47 21 -56 35 -56c32 0 33 37 33 56
v218c0 13 0 26 -8 39c-6 10 -13 15 -26 15c-12 0 -22 -7 -27 -15c-4 -7 -7 -18 -7 -40zM795 35v-35h-239v35h239z" />
    <glyph glyph-name="afii10101" unicode="&#x454;" horiz-adv-x="311" 
d="M218 239v-20h-102v-80c0 -61 8 -93 25 -110c11 -11 29 -17 43 -17c22 0 40 14 40 28c0 9 -8 17 -14 23c-14 13 -25 25 -25 51c0 37 23 62 51 62c32 0 58 -30 58 -71c0 -36 -16 -61 -29 -75c-23 -24 -58 -38 -93 -38c-48 0 -81 21 -110 59c-26 34 -54 89 -54 171
c0 63 16 125 53 170c37 46 74 53 101 53c23 0 41 -5 55 -11c15 -6 20 -10 27 -10s13 6 13 14h16l5 -159h-19c-2 17 -7 46 -17 77c-11 35 -28 69 -72 69c-26 0 -40 -15 -48 -42c-3 -12 -6 -29 -6 -93v-51h102z" />
    <glyph glyph-name="guillemotright" unicode="&#xbb;" horiz-adv-x="442" 
d="M28 338l13 5c47 -52 103 -99 170 -140c-67 -39 -123 -87 -170 -140l-13 5c23 51 52 96 86 135c-34 40 -63 85 -86 135zM120 451l11 10c92 -110 193 -193 297 -258c-104 -66 -205 -150 -297 -258l-11 9c48 88 105 171 171 249c-66 77 -123 160 -171 248z" />
    <glyph glyph-name="afii10105" unicode="&#x458;" horiz-adv-x="205" 
d="M149 445v-399c0 -37 -2 -77 -10 -116c-6 -28 -18 -78 -50 -105c-18 -15 -44 -26 -71 -26c-28 0 -50 12 -63 25c-14 14 -25 38 -25 69c0 51 29 70 53 70s49 -22 49 -58c0 -37 -30 -53 -30 -65c0 -10 9 -20 20 -20c10 0 23 7 29 29c4 15 5 42 5 53c0 16 -2 28 -3 57
c-1 26 -2 39 -2 49v409h-45v20h84c34 0 52 6 59 8zM42 588c0 25 17 57 50 57c23 0 50 -18 50 -57c0 -38 -27 -58 -50 -58c-27 0 -50 27 -50 58z" />
    <glyph glyph-name="afii10054" unicode="&#x405;" horiz-adv-x="410" 
d="M336 469c-5 20 -15 55 -22 72c-10 24 -29 54 -44 70c-18 18 -38 30 -67 30c-41 0 -85 -23 -85 -95c0 -69 44 -92 70 -106l91 -50c40 -22 65 -45 87 -89c17 -34 23 -63 23 -98c0 -80 -24 -127 -49 -158c-34 -41 -66 -53 -117 -53c-31 0 -47 5 -69 14c-26 11 -39 17 -51 17
c-9 0 -26 -4 -31 -23h-30v233h21c6 -37 18 -79 30 -106c29 -64 63 -89 74 -96c21 -14 35 -17 57 -17c65 0 99 46 99 113c0 83 -51 111 -85 130l-83 46c-38 21 -61 48 -74 72c-21 37 -24 74 -24 104c0 35 5 96 49 142c18 19 50 42 98 42c22 0 40 -5 58 -13
c15 -7 26 -14 35 -14c10 0 23 8 30 19h31v-186h-22z" />
    <glyph glyph-name="afii10102" unicode="&#x455;" horiz-adv-x="295" 
d="M253 309h-17c-3 32 -15 62 -32 82c-18 21 -44 34 -70 34c-28 0 -56 -17 -56 -58c0 -45 36 -63 53 -69l58 -22c35 -13 54 -36 61 -47c19 -29 23 -61 23 -89c0 -44 -11 -80 -37 -110c-26 -29 -54 -38 -86 -38c-27 0 -41 6 -60 17c-16 9 -24 15 -32 15
c-11 0 -19 -10 -19 -25h-17v166h21c1 -29 8 -69 31 -103c23 -33 45 -50 79 -50c29 0 64 17 64 69c0 53 -31 68 -62 81l-53 22c-19 8 -42 21 -58 47s-19 54 -19 76c0 56 17 94 46 117c20 17 41 21 65 21c18 0 29 -3 45 -8c20 -7 30 -16 40 -16c9 0 17 6 19 17h13v-129z" />
    <glyph glyph-name="afii10017" unicode="&#x410;" horiz-adv-x="399" 
d="M234 191h-146l-11 -43c-4 -17 -12 -59 -12 -71c0 -24 12 -39 25 -46c6 -3 16 -6 41 -9v-22h-159v22c32 2 46 21 54 38c11 23 17 50 23 74l135 529h46l162 -641h42v-22h-212v22h57zM231 213l-69 272l-70 -272h139z" />
    <glyph glyph-name="afii10018" unicode="&#x411;" horiz-adv-x="473" 
d="M28 655h378l6 -198h-25c-4 35 -15 98 -28 126c-17 36 -45 50 -93 50h-72v-254h51c45 0 98 -17 128 -40c36 -28 68 -87 68 -158c0 -39 -11 -83 -29 -113c-33 -55 -85 -68 -154 -68h-230v22h58v611h-58v22zM194 22h40c19 0 54 2 73 46c9 21 12 46 12 82v85
c0 63 -15 91 -37 107c-19 14 -37 15 -52 15h-36v-335z" />
    <glyph glyph-name="afii10019" unicode="&#x412;" horiz-adv-x="480" 
d="M28 655h223c97 0 137 -26 153 -39c21 -17 44 -48 44 -99c0 -53 -24 -86 -44 -105c-26 -24 -59 -36 -104 -47v-5c61 -16 93 -37 120 -65c34 -35 42 -63 42 -109c0 -44 -9 -82 -40 -119c-49 -58 -121 -67 -167 -67h-227v22h58v611h-58v22zM194 377h50c20 0 44 2 64 29
c18 24 20 47 20 68v67c0 24 -2 59 -30 80c-17 12 -32 12 -49 12h-55v-256zM194 22h45c59 0 77 24 86 41c13 26 15 57 15 86v69c0 37 -1 64 -17 94c-10 19 -30 43 -75 43h-54v-333z" />
    <glyph glyph-name="afii10020" unicode="&#x413;" horiz-adv-x="392" 
d="M28 655h374l4 -210h-25c-5 29 -18 83 -31 116c-12 32 -36 72 -97 72h-58v-611h72v-22h-239v22h59v611h-59v22z" />
    <glyph glyph-name="afii10021" unicode="&#x414;" horiz-adv-x="478" 
d="M49 655h407v-22h-58v-611h74l7 -211h-28c-7 51 -33 130 -69 162c-30 26 -63 27 -82 27h-145c-28 0 -57 2 -88 -42c-28 -39 -40 -109 -45 -147h-28l8 211h62c20 35 31 69 38 110c3 20 7 57 8 81l9 260c3 84 4 123 -12 142c-11 13 -36 20 -58 18v22zM290 22v611h-76
c-18 0 -37 1 -52 -16c-17 -19 -15 -58 -17 -101l-12 -303c-4 -106 -22 -154 -42 -191h199z" />
    <glyph glyph-name="afii10022" unicode="&#x415;" horiz-adv-x="455" 
d="M28 655h400l5 -210h-25c-2 29 -11 74 -28 110c-14 30 -47 78 -119 78h-67v-262h46c18 0 33 5 49 28c17 25 24 61 24 91h24v-262h-24c0 21 -3 49 -10 69c-17 50 -50 52 -63 52h-46v-327h67c55 0 98 40 122 81c20 34 34 80 38 114h24l-7 -217h-410v22h58v611h-58v22z" />
    <glyph glyph-name="afii10024" unicode="&#x416;" horiz-adv-x="737" 
d="M259 655h226v-22h-59v-279h27c31 0 59 7 68 69c5 35 6 56 6 80c0 21 1 46 6 76c4 23 10 47 34 66c15 13 33 18 55 18c26 0 48 -14 62 -30c12 -14 21 -36 21 -57s-7 -45 -18 -59s-25 -21 -44 -21c-37 0 -56 32 -56 61c0 7 1 13 3 20c2 8 4 16 4 24c0 11 -6 17 -11 17
c-6 0 -14 -7 -20 -17c-13 -23 -13 -59 -15 -131c-2 -68 -11 -96 -36 -118c13 -1 51 -7 84 -31c51 -38 61 -97 64 -153c1 -22 2 -43 3 -65c1 -10 1 -21 2 -31c1 -25 1 -42 22 -42c9 0 18 3 25 9l7 -17c-28 -26 -60 -30 -81 -30c-16 0 -38 3 -55 19c-22 20 -29 55 -33 83
c-4 29 -5 56 -10 118c-3 40 -6 67 -18 86c-7 11 -25 34 -63 34h-33v-310h59v-22h-226v22h59v310h-33c-38 0 -56 -23 -63 -34c-12 -19 -15 -46 -18 -86c-5 -62 -6 -89 -10 -118c-4 -28 -11 -63 -33 -83c-17 -16 -39 -19 -55 -19c-21 0 -53 4 -81 30l7 17c7 -6 16 -9 25 -9
c21 0 21 17 22 42c1 10 1 21 2 31c1 22 2 43 3 65c3 56 13 115 64 153c33 24 71 30 84 31c-25 22 -34 50 -36 118c-2 72 -2 108 -15 131c-6 10 -14 17 -20 17c-5 0 -11 -6 -11 -17c0 -8 2 -16 4 -24c2 -7 3 -13 3 -20c0 -29 -19 -61 -56 -61c-19 0 -33 7 -44 21
s-18 38 -18 59s9 43 21 57c14 16 36 30 62 30c22 0 40 -5 55 -18c24 -19 30 -43 34 -66c5 -30 6 -55 6 -76c0 -24 1 -45 6 -80c9 -62 37 -69 68 -69h27v279h-59v22z" />
    <glyph glyph-name="afii10025" unicode="&#x417;" horiz-adv-x="426" 
d="M80 460h-20l10 195h16c6 -28 39 -15 50 -10c32 13 56 18 90 18c65 0 100 -20 125 -43c33 -30 45 -61 45 -98c0 -63 -26 -97 -55 -118c-25 -18 -56 -30 -82 -36v-9c40 -10 78 -32 102 -57c33 -34 47 -73 47 -120c0 -52 -20 -111 -58 -145c-35 -32 -89 -45 -139 -45
c-38 0 -89 7 -131 46c-32 30 -49 72 -49 110c0 57 30 94 68 94c33 0 59 -31 59 -75c0 -38 -27 -52 -44 -66c-7 -6 -16 -14 -16 -29c0 -12 8 -28 26 -40c25 -17 56 -18 68 -18c28 0 52 7 71 34c17 25 23 61 23 107v61c0 29 -4 80 -24 107c-11 15 -32 31 -64 31h-55v22h63
c29 0 45 17 53 28c13 18 18 48 18 76v57c0 20 -3 59 -20 81c-8 10 -23 23 -46 23c-21 0 -44 -7 -65 -25c-43 -37 -53 -89 -66 -156z" />
    <glyph glyph-name="afii10026" unicode="&#x418;" horiz-adv-x="546" 
d="M28 655h216v-22h-49v-498l163 452v46h-49v22h216v-22h-59v-611h59v-22h-216v22h49v495l-163 -454v-41h49v-22h-216v22h59v611h-59v22z" />
    <glyph glyph-name="afii10027" unicode="&#x419;" horiz-adv-x="546" 
d="M28 655h216v-22h-49v-498l163 452v46h-49v22h216v-22h-59v-611h59v-22h-216v22h49v495l-163 -454v-41h49v-22h-216v22h59v611h-59v22zM277 701c13 0 30 2 40 7c9 5 15 12 15 19c0 8 -6 16 -12 23c-8 11 -12 21 -12 33c0 31 23 48 45 48c23 0 48 -16 48 -54
c0 -30 -13 -52 -34 -67c-29 -21 -65 -24 -90 -24s-61 3 -90 24c-21 15 -34 37 -34 67c0 38 25 54 48 54c24 0 45 -19 45 -48c0 -12 -3 -22 -9 -30c-6 -9 -15 -17 -15 -25c0 -7 6 -15 15 -20c10 -5 27 -7 40 -7z" />
    <glyph glyph-name="afii10028" unicode="&#x41a;" horiz-adv-x="487" 
d="M28 655h225v-22h-59v-279h37c25 0 63 3 70 76c10 111 0 51 6 118c11 115 67 115 84 115c22 0 50 -5 71 -30c13 -16 21 -37 21 -56c0 -20 -4 -42 -18 -60c-12 -15 -24 -21 -44 -21c-43 0 -57 44 -57 71c0 23 9 28 9 41c0 5 -4 11 -12 11c-35 0 -33 -98 -35 -149
c-2 -69 -10 -96 -36 -117l1 -4c58 -7 96 -25 122 -73c22 -40 22 -79 24 -111c2 -28 6 -85 8 -104c2 -15 4 -33 25 -33c7 0 12 3 18 9l9 -15c-26 -24 -59 -30 -85 -30c-25 0 -41 10 -51 19c-22 20 -29 55 -33 83c-3 24 -5 49 -10 118c-2 30 -4 67 -22 91
c-18 25 -42 29 -59 29h-43v-310h59v-22h-225v22h58v611h-58v22z" />
    <glyph glyph-name="afii10029" unicode="&#x41b;" horiz-adv-x="520" 
d="M86 655h413v-22h-59v-611h59v-22h-226v22h59v611h-65c-12 0 -37 -2 -55 -20c-21 -22 -21 -61 -21 -125c0 -61 -3 -133 -4 -195c-3 -143 -6 -195 -11 -221c-9 -49 -35 -80 -78 -80c-32 0 -53 15 -66 29c-19 21 -29 49 -29 76c0 52 29 84 66 84c29 0 59 -25 59 -74
c0 -22 -6 -31 -14 -46c-7 -13 -16 -21 -16 -29c0 -7 6 -18 15 -18c7 0 35 2 43 73c5 40 6 89 7 110c1 45 4 152 4 178l1 142c0 57 -8 78 -11 84c-13 27 -36 32 -56 32h-15v22z" />
    <glyph glyph-name="afii10030" unicode="&#x41c;" horiz-adv-x="620" 
d="M32 655h175l110 -420l109 420h173v-22h-58v-611h58v-22h-225v22h59v580l-153 -602h-14l-155 602v-452c0 -72 10 -93 14 -101c11 -21 25 -26 41 -27v-22h-138v22c13 2 31 8 44 30c14 25 17 71 17 102v380c0 54 -5 71 -13 81c-7 9 -22 16 -44 18v22z" />
    <glyph glyph-name="afii10031" unicode="&#x41d;" horiz-adv-x="544" 
d="M28 655h215v-22h-49v-276h163v276h-49v22h215v-22h-58v-611h58v-22h-215v22h49v313h-163v-313h49v-22h-215v22h58v611h-58v22z" />
    <glyph glyph-name="afii10032" unicode="&#x41e;" horiz-adv-x="511" 
d="M29 327c0 132 45 217 94 269s97 67 135 67c59 0 104 -31 137 -67c80 -87 94 -195 94 -269c0 -40 -4 -175 -94 -270c-53 -56 -106 -65 -137 -65c-39 0 -88 16 -135 65c-38 40 -94 122 -94 270zM151 433v-214c0 -47 6 -124 35 -165c25 -35 56 -40 72 -40c30 0 58 15 75 39
c25 36 34 130 34 166v214c0 48 -11 128 -34 165c-18 29 -43 43 -75 43c-35 0 -57 -18 -73 -44c-27 -44 -34 -130 -34 -164z" />
    <glyph glyph-name="afii10033" unicode="&#x41f;" horiz-adv-x="547" 
d="M28 655h498v-22h-59v-611h59v-22h-216v22h49v611h-164v-611h49v-22h-216v22h59v611h-59v22z" />
    <glyph glyph-name="afii10034" unicode="&#x420;" horiz-adv-x="468" 
d="M28 655h221c33 0 74 -3 108 -16c43 -17 104 -59 104 -175c0 -47 -10 -123 -85 -160c-44 -21 -107 -24 -131 -24h-50v-258h66v-22h-233v22h59v611h-59v22zM195 302h35c19 0 49 0 71 15c42 29 38 90 38 130v71c0 41 -4 90 -41 106c-12 5 -42 9 -61 9h-42v-331z" />
    <glyph glyph-name="afii10035" unicode="&#x421;" horiz-adv-x="426" 
d="M408 444h-20c-7 52 -23 91 -34 114c-12 26 -43 83 -101 83c-29 0 -65 -17 -85 -65c-18 -43 -21 -103 -21 -170v-137c0 -93 8 -154 31 -197c20 -37 49 -58 74 -58c28 0 74 17 108 88c18 38 29 74 34 130h25l-6 -232h-25c-8 21 -19 25 -30 25c-15 0 -29 -10 -45 -18
c-12 -6 -29 -15 -58 -15c-83 0 -135 47 -177 121c-28 50 -53 113 -53 213c0 105 38 204 81 260c44 57 96 77 140 77c26 0 51 -7 72 -15c20 -8 29 -13 38 -13c7 0 22 3 26 20h26v-211z" />
    <glyph glyph-name="afii10036" unicode="&#x422;" horiz-adv-x="447" 
d="M173 633h-19c-58 0 -86 -63 -94 -83c-14 -33 -20 -65 -26 -107h-26l5 212h428l5 -212h-26c-5 36 -15 78 -27 107c-32 79 -75 83 -93 83h-19v-611h59v-22h-226v22h59v611z" />
    <glyph glyph-name="afii10037" unicode="&#x423;" horiz-adv-x="410" 
d="M-14 655h217v-22h-53l131 -377l71 256c4 16 14 54 14 71c0 50 -38 50 -47 50h-10v22h150v-22c-17 -6 -33 -12 -45 -26c-1 -1 -14 -17 -25 -53l-114 -382c-9 -31 -40 -110 -56 -135c-21 -32 -47 -45 -79 -45c-23 0 -57 8 -84 42c-17 22 -28 51 -28 87c0 53 33 81 65 81
c33 0 61 -30 61 -71c0 -39 -22 -61 -42 -70c-9 -4 -23 -9 -23 -21c0 -7 6 -13 11 -16c14 -10 26 -10 40 -10s29 1 46 18c13 13 27 38 34 59l-190 542h-44v22z" />
    <glyph glyph-name="afii10038" unicode="&#x424;" horiz-adv-x="617" 
d="M199 669h226v-22h-59v-58c125 5 173 -61 190 -90c33 -55 40 -119 40 -166c0 -107 -35 -176 -74 -208c-38 -32 -103 -47 -156 -43v-60h59v-22h-226v22h59v60c-55 -5 -121 11 -156 40c-47 39 -74 123 -74 211c0 27 3 107 39 166c53 86 150 92 191 90v58h-59v22zM366 567
v-463h24c37 0 62 25 72 45c10 21 12 62 12 76v230c0 15 -2 45 -15 70c-22 40 -53 42 -74 42h-19zM258 104v463h-15c-26 0 -56 -2 -78 -42c-13 -25 -15 -55 -15 -70v-230c0 -14 2 -55 12 -76c7 -14 28 -45 78 -45h18z" />
    <glyph glyph-name="afii10039" unicode="&#x425;" horiz-adv-x="491" 
d="M15 655h208v-22h-52l107 -232l51 106c5 11 21 47 21 74c0 30 -20 53 -50 52v22h171v-22c-12 0 -38 -3 -63 -31c-6 -6 -21 -25 -50 -87l-66 -143l159 -350h46v-22h-208v22h42l-118 254l-62 -129c-7 -15 -24 -52 -24 -76c0 -23 12 -37 23 -43c10 -5 31 -6 39 -6v-22h-181
v22c15 1 36 6 56 26c7 7 23 25 51 82l85 173l-153 330h-32v22z" />
    <glyph glyph-name="afii10040" unicode="&#x426;" horiz-adv-x="555" 
d="M28 655h216v-22h-49v-611h164v611h-49v22h216v-22h-59v-611h78l9 -212h-25c-13 55 -27 95 -47 127c-20 33 -49 63 -101 63h-353v22h59v611h-59v22z" />
    <glyph glyph-name="afii10041" unicode="&#x427;" horiz-adv-x="494" 
d="M0 655h215v-22h-49v-229c0 -61 4 -83 12 -95c9 -14 28 -25 45 -25c21 0 60 18 84 34v315h-49v22h215v-22h-58v-611h58v-22h-225v22h59v274c-28 -21 -76 -48 -132 -48s-83 29 -90 39c-19 25 -27 64 -27 130v216h-58v22z" />
    <glyph glyph-name="afii10042" unicode="&#x428;" horiz-adv-x="783" 
d="M28 655h216v-22h-49v-611h146v611h-49v22h206v-22h-49v-611h146v611h-49v22h216v-22h-59v-611h59v-22h-734v22h59v611h-59v22z" />
    <glyph glyph-name="afii10043" unicode="&#x429;" horiz-adv-x="791" 
d="M28 655h216v-22h-49v-611h146v611h-49v22h206v-22h-49v-611h146v611h-49v22h216v-22h-59v-611h78l9 -212h-25c-15 63 -31 101 -47 127c-33 54 -72 63 -101 63h-589v22h59v611h-59v22z" />
    <glyph glyph-name="afii10044" unicode="&#x42a;" horiz-adv-x="515" 
d="M333 655v-22h-59v-259h29c84 0 134 -32 161 -61c40 -44 44 -99 44 -124c0 -50 -13 -105 -44 -138c-44 -48 -113 -51 -149 -51h-208v22h59v611c-106 18 -139 -117 -141 -201h-25l5 223h328zM274 22h25c16 0 51 2 72 35c11 18 15 46 15 91v78c0 56 -7 79 -15 92
c-17 30 -42 34 -68 34h-29v-330z" />
    <glyph glyph-name="afii10045" unicode="&#x42b;" horiz-adv-x="684" 
d="M28 655h226v-22h-59v-259h29c84 0 136 -32 163 -61c21 -23 43 -65 43 -129c0 -45 -12 -99 -44 -133c-44 -48 -113 -51 -150 -51h-208v22h59v611h-59v22zM195 22h25c16 0 52 2 72 35c13 21 16 63 16 91v78c0 8 0 67 -16 92c-8 13 -28 34 -68 34h-29v-330zM437 655h226v-22
h-59v-611h59v-22h-226v22h59v611h-59v22z" />
    <glyph glyph-name="afii10046" unicode="&#x42c;" horiz-adv-x="437" 
d="M28 655h226v-22h-59v-259h29c84 0 136 -32 163 -61c21 -23 43 -65 43 -129c0 -45 -12 -99 -44 -133c-44 -48 -113 -51 -150 -51h-208v22h59v611h-59v22zM195 22h25c16 0 52 2 72 35c13 21 16 63 16 91v78c0 8 0 67 -16 92c-8 13 -28 34 -68 34h-29v-330z" />
    <glyph glyph-name="afii10047" unicode="&#x42d;" horiz-adv-x="409" 
d="M88 357h178v96c0 43 -2 81 -12 118c-8 30 -25 70 -79 70c-31 0 -55 -18 -74 -41c-23 -28 -45 -71 -51 -150h-19l9 205h16c3 -17 17 -20 25 -20c12 0 24 7 43 15c14 6 35 13 63 13c36 0 76 -14 113 -52c77 -78 88 -208 88 -277c0 -94 -25 -195 -71 -261
c-37 -53 -85 -81 -148 -81c-54 0 -91 23 -114 46c-27 27 -41 59 -41 100c0 57 33 81 63 81s57 -29 57 -63c0 -25 -10 -36 -19 -49c-17 -25 -19 -37 -19 -41c0 -25 19 -52 67 -52c50 0 73 42 82 68c16 45 21 135 21 184v69h-178v22z" />
    <glyph glyph-name="afii10048" unicode="&#x42e;" horiz-adv-x="768" 
d="M28 655h226v-22h-59v-276h81c2 71 23 168 94 241c48 50 97 65 135 65c59 0 104 -31 137 -67c80 -87 94 -195 94 -269c0 -40 -4 -175 -94 -270c-53 -56 -106 -65 -137 -65c-40 0 -87 15 -135 67c-71 77 -95 187 -94 276h-81v-313h59v-22h-226v22h59v611h-59v22zM398 433
v-214c0 -43 6 -91 15 -122c19 -63 59 -83 92 -83c68 0 87 62 93 83c10 40 16 89 16 122v214c0 48 -11 128 -34 165c-18 29 -43 43 -75 43c-35 0 -57 -18 -73 -44c-27 -44 -34 -130 -34 -164z" />
    <glyph glyph-name="afii10049" unicode="&#x42f;" horiz-adv-x="508" 
d="M487 655v-22h-59v-611h59v-22h-226v22h59v309h-61c-51 0 -65 -32 -71 -54c-11 -40 -7 -89 -16 -165c-8 -64 -21 -87 -31 -98c-19 -20 -47 -22 -66 -22c-25 0 -51 5 -81 29l10 17c12 -7 18 -9 23 -9c10 0 26 6 30 38c3 25 4 53 8 110c3 39 8 81 39 114c28 30 74 42 102 47
v8c-10 1 -76 9 -114 48c-34 34 -38 81 -38 109c0 62 25 95 43 111c42 38 110 41 149 41h241zM320 353v280h-51c-34 0 -58 -13 -70 -25c-21 -22 -23 -56 -23 -84v-58c0 -28 0 -54 15 -78c20 -32 47 -35 81 -35h48z" />
    <glyph glyph-name="afii10065" unicode="&#x430;" horiz-adv-x="361" 
d="M350 55l11 -10c-7 -11 -15 -20 -28 -32c-14 -13 -26 -21 -49 -21s-37 6 -51 22s-19 33 -20 45c-12 -17 -30 -37 -44 -47c-15 -11 -37 -20 -63 -20c-29 0 -52 10 -70 33c-17 22 -25 51 -25 81c0 43 16 79 38 99c37 33 127 42 162 44v113c0 27 -8 46 -22 55
c-10 6 -23 8 -34 8c-43 0 -49 -19 -49 -27c0 -15 11 -23 20 -35c9 -11 14 -25 14 -43c0 -38 -28 -59 -54 -59c-36 0 -54 37 -54 70c0 20 9 47 25 65c22 26 69 49 129 49c18 0 58 -1 84 -15c25 -13 39 -36 39 -69v-274c0 -28 -1 -49 15 -49c7 0 16 3 26 17zM211 84v145
c-26 -2 -56 -14 -70 -28c-20 -21 -22 -56 -22 -82c0 -39 1 -81 36 -81c20 0 42 27 56 46z" />
    <glyph glyph-name="afii10066" unicode="&#x431;" horiz-adv-x="348" 
d="M26 309h8c6 31 21 63 41 87c25 29 59 49 92 49c32 0 76 -14 114 -68c34 -49 45 -103 45 -159c0 -38 -6 -95 -39 -148c-34 -55 -81 -78 -120 -78c-54 0 -117 47 -143 144c-6 22 -16 66 -16 158c0 145 31 242 75 297c21 27 51 51 88 66c40 17 74 18 96 25c25 8 35 18 36 39
h17c-1 -33 -11 -71 -33 -100c-18 -24 -41 -40 -70 -52c-27 -12 -55 -19 -87 -34c-30 -14 -59 -33 -80 -77s-26 -108 -24 -149zM116 339v-241c0 -71 31 -86 51 -86s51 15 51 86v241c0 81 -41 86 -50 86c-12 0 -52 -5 -52 -86z" />
    <glyph glyph-name="afii10067" unicode="&#x432;" horiz-adv-x="364" 
d="M6 437h148c59 0 104 0 136 -29c16 -14 28 -38 28 -66c0 -24 -10 -50 -26 -66c-14 -14 -36 -24 -76 -35v-3c28 -6 55 -14 78 -32c29 -22 42 -50 42 -83c0 -29 -12 -69 -32 -90c-30 -31 -75 -33 -101 -33h-197v20h34v397h-34v20zM138 250h29c26 0 38 6 46 29
c6 15 6 28 6 42v30c0 29 -6 43 -10 49c-12 19 -30 17 -43 17h-28v-167zM138 20h47c27 0 35 28 37 34c3 10 6 35 6 48v38c0 18 0 53 -16 72c-9 11 -24 18 -38 18h-36v-210z" />
    <glyph glyph-name="afii10068" unicode="&#x433;" horiz-adv-x="287" 
d="M6 437h268l5 -170h-22c-3 26 -12 66 -25 93c-14 30 -37 60 -93 57v-397h40v-20h-173v20h35v397h-35v20z" />
    <glyph glyph-name="afii10069" unicode="&#x434;" horiz-adv-x="352" 
d="M35 437h291v-20h-35v-397h53v-178h-20c-3 36 -15 88 -38 120s-49 38 -70 38h-96c-27 0 -59 -4 -88 -72c-12 -28 -15 -47 -20 -86h-20v178c24 -2 49 7 64 33c7 13 16 37 20 103c3 46 6 142 6 199c0 21 -1 37 -7 47c-5 8 -13 15 -30 15h-10v20zM193 20v397h-60
c-11 0 -22 -3 -27 -30c-5 -23 -4 -55 -4 -88l-1 -66c-1 -36 -5 -107 -11 -141c-6 -35 -15 -54 -30 -72h133z" />
    <glyph glyph-name="afii10070" unicode="&#x435;" horiz-adv-x="329" 
d="M287 109l13 -7c-9 -19 -25 -47 -40 -66c-17 -21 -43 -44 -87 -44c-38 0 -80 19 -114 64c-36 47 -51 110 -51 163c0 67 20 123 51 165c35 48 74 61 103 61c38 0 81 -23 111 -74c27 -46 34 -100 34 -136h-191v-91c0 -65 8 -86 11 -93c8 -19 25 -39 53 -39c30 0 54 22 64 32
c17 17 32 40 43 65zM116 255h93v46c0 14 -2 54 -5 72c-7 40 -26 52 -43 52c-39 0 -45 -41 -45 -84v-86z" />
    <glyph glyph-name="afii10072" unicode="&#x436;" horiz-adv-x="564" 
d="M192 437h166v-20h-34v-176h26c9 0 21 -1 34 14c9 11 16 28 23 84c5 38 7 69 27 90c12 13 26 16 39 16c45 0 70 -35 70 -71c0 -43 -27 -66 -52 -66c-15 0 -25 9 -32 23s-6 26 -7 37c-1 9 -1 26 -10 26c-12 0 -15 -26 -17 -44c-2 -19 -7 -56 -13 -77c-4 -17 -9 -26 -21 -35
c34 -10 66 -22 85 -53c16 -25 19 -64 24 -125c1 -9 3 -30 20 -30c10 0 17 11 23 20l10 -8c-6 -13 -15 -23 -24 -31c-15 -12 -33 -19 -51 -19c-23 0 -36 9 -47 29c-12 23 -16 53 -26 120c-5 33 -16 80 -60 80h-21v-201h34v-20h-166v20h34v201h-21c-44 0 -55 -47 -60 -80
c-10 -67 -14 -97 -26 -120c-11 -20 -24 -29 -47 -29c-18 0 -36 7 -51 19c-9 8 -18 18 -24 31l10 8c6 -9 13 -20 23 -20c17 0 19 21 20 30c5 61 8 100 24 125c19 31 51 43 85 53c-12 9 -17 18 -21 35c-6 21 -11 58 -13 77c-2 18 -5 44 -17 44c-9 0 -9 -17 -10 -26
c-1 -11 0 -23 -7 -37s-17 -23 -32 -23c-25 0 -52 23 -52 66c0 36 25 71 70 71c13 0 27 -3 39 -16c20 -21 22 -52 27 -90c7 -56 14 -73 23 -84c13 -15 25 -14 34 -14h26v176h-34v20z" />
    <glyph glyph-name="afii10073" unicode="&#x437;" horiz-adv-x="293" 
d="M85 251h18c10 0 36 0 48 18c7 10 9 28 9 42v32c0 39 -2 54 -8 64c-9 15 -21 18 -30 18c-22 0 -36 -11 -50 -34c-18 -29 -32 -76 -36 -116h-15l2 164h16c2 -15 12 -17 17 -17c9 0 13 6 34 14c19 7 36 9 53 9c73 0 118 -44 118 -98c0 -29 -15 -59 -40 -77
c-17 -12 -37 -18 -68 -27v-5c36 -6 64 -20 87 -45c20 -22 29 -43 29 -78c0 -20 -4 -50 -28 -77c-32 -35 -88 -46 -120 -46c-31 0 -64 9 -88 29c-16 13 -37 39 -37 83c0 18 4 33 11 45c10 17 25 27 41 27c27 0 53 -22 53 -59c0 -29 -15 -43 -27 -54c-5 -5 -12 -11 -12 -19
c0 -13 12 -32 45 -32c15 0 34 8 43 23c5 8 11 32 11 44v75c0 16 -2 45 -15 60c-14 16 -37 17 -51 17h-10v20z" />
    <glyph glyph-name="afii10074" unicode="&#x438;" horiz-adv-x="389" 
d="M6 437h162v-20h-29v-319l97 312v7h-29v20h162v-20h-35v-397h35v-20h-162v20h29v327l-97 -314v-13h29v-20h-162v20h35v397h-35v20z" />
    <glyph glyph-name="afii10075" unicode="&#x439;" horiz-adv-x="389" 
d="M6 437h162v-20h-29v-319l97 312v7h-29v20h162v-20h-35v-397h35v-20h-162v20h29v327l-97 -314v-13h29v-20h-162v20h35v397h-35v20zM187 526c11 0 21 1 36 7c20 9 27 21 27 32s-6 14 -10 18c-17 15 -21 34 -21 47c0 16 5 29 14 38s19 14 31 14c23 0 51 -15 51 -60
c0 -34 -18 -71 -50 -93c-19 -13 -45 -22 -78 -22s-59 9 -78 22c-32 22 -50 59 -50 93c0 45 28 60 51 60c12 0 22 -5 31 -14s14 -22 14 -38c0 -13 -4 -32 -21 -47c-4 -4 -10 -7 -10 -18s7 -23 27 -32c15 -6 25 -7 36 -7z" />
    <glyph glyph-name="afii10076" unicode="&#x43a;" horiz-adv-x="378" 
d="M6 437h166v-20h-34v-177h19c14 0 30 1 42 15c6 7 15 22 22 83c4 31 6 70 26 91c12 13 27 16 39 16c36 0 70 -22 70 -72c0 -44 -26 -65 -50 -65c-13 0 -25 6 -33 23c-6 12 -7 25 -7 37c0 8 0 25 -12 25c-10 0 -14 -35 -15 -44c-1 -14 -6 -56 -13 -80
c-5 -16 -10 -26 -23 -34v-3c22 -1 45 -7 62 -19c33 -22 42 -54 45 -84l6 -54c3 -23 1 -45 17 -45c11 0 19 11 24 21l10 -9c-4 -9 -11 -21 -28 -34c-14 -11 -26 -16 -47 -16c-18 0 -34 5 -48 20c-16 18 -18 41 -21 59l-10 69c-3 22 -5 42 -19 59c-7 9 -22 21 -44 21h-12v-200
h34v-20h-166v20h34v397h-34v20z" />
    <glyph glyph-name="afii10077" unicode="&#x43b;" horiz-adv-x="377" 
d="M71 437h286v-20h-34v-397h34v-20h-166v20h34v397h-55c-13 0 -20 -12 -22 -17c-3 -8 -5 -18 -5 -45l-3 -165c0 -24 -2 -90 -4 -109c-6 -61 -38 -89 -77 -89c-45 0 -70 36 -70 76c0 44 28 61 49 61c11 0 25 -6 32 -21c7 -14 5 -29 6 -43c2 -23 12 -26 17 -26
c11 0 20 17 23 40c2 15 3 38 4 106l3 170c0 26 -2 40 -9 49c-10 12 -25 13 -30 13h-13v20z" />
    <glyph glyph-name="afii10078" unicode="&#x43c;" horiz-adv-x="454" 
d="M8 437h135l80 -273l77 273h134v-20h-34v-397h34v-20h-167v20h35v355l-105 -375h-11l-112 378v-310c0 -7 1 -25 6 -34c9 -14 26 -14 31 -14h9v-20h-114v20h9c22 0 30 10 33 14c5 8 6 27 6 34v305c0 12 -1 26 -11 35c-6 5 -18 9 -28 9h-7v20z" />
    <glyph glyph-name="afii10079" unicode="&#x43d;" horiz-adv-x="387" 
d="M6 437h161v-20h-29v-178h97v178h-29v20h161v-20h-34v-397h34v-20h-161v20h29v199h-97v-199h29v-20h-161v20h34v397h-34v20z" />
    <glyph glyph-name="afii10080" unicode="&#x43e;" horiz-adv-x="350" 
d="M8 218c0 49 14 104 41 148c38 62 83 79 119 79s81 -17 119 -79c27 -44 41 -99 41 -148c0 -46 -13 -104 -40 -148c-34 -55 -80 -78 -120 -78s-86 23 -120 78c-27 44 -40 102 -40 148zM116 310v-184c0 -19 1 -55 5 -71c9 -34 31 -43 47 -43s38 9 47 43c4 16 5 52 5 71v184
c0 52 -4 68 -5 73c-9 33 -31 42 -47 42s-38 -9 -47 -42c-1 -5 -5 -21 -5 -73z" />
    <glyph glyph-name="afii10081" unicode="&#x43f;" horiz-adv-x="382" 
d="M6 437h356v-20h-34v-397h34v-20h-161v20h29v397h-92v-397h29v-20h-161v20h34v397h-34v20z" />
    <glyph glyph-name="afii10082" unicode="&#x440;" horiz-adv-x="385" 
d="M136 445v-70c3 13 9 30 24 46s31 24 60 24c61 0 98 -53 114 -86c21 -42 29 -103 29 -146c0 -57 -13 -114 -44 -158s-69 -63 -103 -63c-18 0 -42 5 -61 27c-6 7 -14 18 -19 34v-242h34v-20h-166v20h34v606h-35v20h93c11 0 30 5 40 8zM255 156v109c0 19 -2 83 -14 117
c-11 31 -30 39 -41 39c-16 0 -39 -15 -51 -59c-10 -38 -13 -84 -13 -199c0 -32 1 -63 10 -91c11 -35 33 -50 51 -50c16 0 38 12 48 44c8 26 10 73 10 90z" />
    <glyph glyph-name="afii10083" unicode="&#x441;" horiz-adv-x="321" 
d="M285 132l14 -5c-5 -18 -19 -68 -46 -99c-24 -28 -48 -36 -80 -36s-75 11 -113 59c-36 45 -52 107 -52 164c0 53 14 115 47 161s80 69 117 69c32 0 66 -18 88 -43c26 -30 32 -62 32 -83c0 -57 -32 -77 -56 -77c-26 0 -53 25 -53 68c0 23 8 32 19 45c7 9 14 18 14 32
c0 18 -11 38 -39 38c-14 0 -43 -4 -55 -44c-1 -5 -6 -22 -6 -70v-157c0 -14 1 -65 10 -91c12 -32 40 -51 66 -51c28 0 48 23 62 45c17 26 26 52 31 75z" />
    <glyph glyph-name="afii10084" unicode="&#x442;" horiz-adv-x="322" 
d="M0 437h308l6 -178h-20c-2 28 -9 66 -19 92c-6 15 -17 37 -31 50c-15 14 -28 17 -41 16v-397h34v-20h-166v20h34v397c-13 1 -26 -2 -41 -15c-16 -14 -25 -35 -31 -52c-9 -25 -16 -52 -19 -91h-20z" />
    <glyph glyph-name="afii10085" unicode="&#x443;" horiz-adv-x="304" 
d="M-20 437h170v-20h-38l90 -294l53 208c3 13 5 24 5 38c0 16 -2 28 -14 38c-10 9 -22 10 -30 10h-10v20h134v-20h-6c-16 0 -27 -12 -33 -21c-14 -20 -23 -51 -26 -63l-88 -345c-21 -81 -38 -122 -57 -152c-20 -31 -40 -44 -71 -44c-33 0 -54 17 -65 31
c-20 24 -22 50 -22 64c0 57 39 77 62 77c26 0 49 -25 49 -58c0 -14 -4 -22 -10 -33c-8 -15 -14 -26 -14 -37c0 -17 14 -18 18 -18c21 0 37 31 45 46c12 24 21 45 30 73l-145 480h-27v20z" />
    <glyph glyph-name="afii10086" unicode="&#x444;" horiz-adv-x="548" 
d="M316 652v-248c11 21 32 41 67 41c30 0 65 -14 97 -59c39 -54 46 -119 46 -168c0 -57 -10 -110 -44 -161c-35 -53 -74 -65 -104 -65c-13 0 -26 3 -36 9c-11 6 -20 17 -26 27v-229h34v-20h-166v20h34v229c-6 -10 -15 -21 -26 -27c-10 -6 -23 -9 -36 -9
c-30 0 -69 12 -104 65c-34 51 -44 104 -44 161c0 49 7 114 46 168c32 45 67 59 97 59c35 0 56 -20 67 -41v220h-36v20h93c10 0 30 5 41 8zM218 142v177c0 17 0 33 -7 54c-11 33 -32 45 -48 45c-11 0 -27 -7 -36 -29c-6 -14 -11 -47 -11 -65v-205c0 -46 5 -64 7 -70
c7 -23 25 -37 40 -37s34 13 44 39c5 14 11 37 11 91zM316 319v-177c0 -54 6 -77 11 -91c10 -26 29 -39 44 -39s33 14 40 37c2 6 7 24 7 70v205c0 18 -5 51 -11 65c-9 22 -25 29 -36 29c-16 0 -37 -12 -48 -45c-7 -21 -7 -37 -7 -54z" />
    <glyph glyph-name="afii10087" unicode="&#x445;" horiz-adv-x="365" 
d="M5 437h172v-20h-33l63 -144l36 69c7 13 13 30 13 45c0 8 -2 17 -7 22s-14 8 -23 8h-8v20h124v-20c-13 0 -24 -4 -32 -10c-13 -10 -21 -27 -30 -43l-60 -112l102 -232h35v-20h-185v20h39l-66 152l-56 -103c-3 -5 -6 -15 -6 -22c0 -11 6 -19 19 -24c9 -3 20 -3 27 -3v-20
h-135v20c8 0 20 2 30 6c20 8 31 24 38 37l72 128l-99 226h-30v20z" />
    <glyph glyph-name="afii10088" unicode="&#x446;" horiz-adv-x="384" 
d="M6 437h162v-20h-29v-397h93v397h-30v20h163v-20h-35v-397h50l4 -182h-20c-4 38 -14 97 -37 127c-27 35 -55 35 -77 35h-244v20h35v397h-35v20z" />
    <glyph glyph-name="afii10089" unicode="&#x447;" horiz-adv-x="354" 
d="M-14 437h161v-20h-29v-177c0 -28 18 -34 31 -34s41 14 53 23v188h-29v20h161v-20h-34v-397h34v-20h-166v20h34v185c-31 -21 -72 -38 -102 -38c-48 0 -80 37 -80 87v163h-34v20z" />
    <glyph glyph-name="afii10090" unicode="&#x448;" horiz-adv-x="560" 
d="M6 437h162v-20h-30v-397h86v397h-29v20h156v-20h-29v-397h86v397h-30v20h162v-20h-34v-397h34v-20h-534v20h34v397h-34v20z" />
    <glyph glyph-name="afii10091" unicode="&#x449;" horiz-adv-x="559" 
d="M6 437h161v-20h-29v-397h86v397h-29v20h156v-20h-29v-397h86v397h-29v20h161v-20h-34v-397h49l4 -182h-20c-4 38 -14 97 -37 127c-27 35 -55 35 -77 35h-419v20h34v397h-34v20z" />
    <glyph glyph-name="afii10092" unicode="&#x44a;" horiz-adv-x="406" 
d="M242 437v-20h-34v-149h22c26 0 76 -2 114 -30c32 -23 48 -56 48 -98s-15 -84 -40 -109c-27 -28 -57 -31 -82 -31h-194v20h34v397c-19 2 -70 0 -89 -80c-7 -28 -12 -71 -13 -84h-22l4 184h252zM208 248v-228h20c20 0 41 -1 50 29c6 20 6 38 6 62v49c0 12 -1 36 -6 52
c-10 30 -27 36 -50 36h-20z" />
    <glyph glyph-name="afii10093" unicode="&#x44b;" horiz-adv-x="503" 
d="M6 437h166v-20h-34v-149h22c23 0 78 -2 115 -30c39 -29 46 -73 46 -103c0 -39 -10 -74 -39 -103c-26 -26 -49 -32 -83 -32h-193v20h34v397h-34v20zM138 248v-228h19c24 0 43 1 51 29c3 11 5 26 5 62v49c0 14 -1 37 -6 52c-10 30 -29 36 -50 36h-19zM322 437h161v-20h-29
v-397h29v-20h-161v20h34v397h-34v20z" />
    <glyph glyph-name="afii10094" unicode="&#x44c;" horiz-adv-x="335" 
d="M6 437h166v-20h-34v-149h22c23 0 78 -2 115 -30c39 -29 46 -73 46 -103c0 -39 -10 -74 -39 -103c-26 -26 -49 -32 -83 -32h-193v20h34v397h-34v20zM138 248v-228h19c24 0 43 1 51 29c3 11 5 26 5 62v49c0 14 -1 37 -6 52c-10 30 -29 36 -50 36h-19z" />
    <glyph glyph-name="afii10095" unicode="&#x44d;" horiz-adv-x="311" 
d="M38 279h-19l5 159h16c0 -9 6 -14 12 -14c7 0 14 6 32 12c16 6 36 9 52 9c27 0 63 -8 100 -53c37 -46 53 -107 53 -170c0 -82 -28 -137 -54 -171c-29 -38 -62 -59 -108 -59c-37 0 -72 14 -95 38c-14 15 -29 39 -29 73c0 44 27 73 58 73c28 0 51 -25 51 -62
c0 -26 -11 -38 -25 -51c-6 -6 -14 -14 -14 -23c0 -14 18 -28 40 -28c14 0 32 6 43 17c19 19 25 58 25 110v80h-102v20h102v51c0 64 -3 81 -6 93c-8 27 -23 42 -47 42c-50 0 -66 -45 -74 -70c-8 -27 -13 -59 -16 -76z" />
    <glyph glyph-name="afii10096" unicode="&#x44e;" horiz-adv-x="528" 
d="M6 437h167v-20h-34v-178h47c2 38 12 91 41 133c33 48 82 73 121 73s85 -23 117 -75c27 -44 41 -106 41 -152c0 -44 -13 -107 -41 -151c-31 -49 -79 -75 -118 -75c-38 0 -88 25 -121 76c-30 46 -40 108 -40 151h-47v-199h34v-20h-167v20h35v397h-35v20zM294 310v-184
c0 -12 0 -51 6 -71c9 -34 31 -43 46 -43s37 9 46 43c6 20 6 59 6 71v184c0 22 -1 55 -6 73c-9 32 -31 42 -46 42s-37 -10 -46 -42c-5 -18 -6 -51 -6 -73z" />
    <glyph glyph-name="afii10097" unicode="&#x44f;" horiz-adv-x="378" 
d="M358 437v-20h-34v-397h34v-20h-166v20h34v195h-12c-14 0 -34 -10 -46 -26c-12 -17 -17 -44 -28 -93c-10 -49 -17 -70 -29 -85c-12 -14 -26 -19 -45 -19c-21 0 -36 5 -53 21c-13 12 -20 25 -24 33l10 8c4 -9 13 -15 19 -15c19 0 20 37 23 56c5 32 11 64 31 88
c23 27 56 34 96 41v3c-28 1 -68 5 -93 20c-39 24 -42 64 -42 89c0 27 6 53 28 73c33 30 82 28 144 28h153zM226 235v182h-30c-21 0 -33 -4 -44 -23s-11 -44 -11 -63c0 -22 0 -64 22 -82c12 -10 42 -14 52 -14h11z" />
    <glyph glyph-name="afii10052" unicode="&#x403;" horiz-adv-x="392" 
d="M28 655h374l4 -210h-25c-5 29 -18 83 -31 116c-12 32 -36 72 -97 72h-58v-611h72v-22h-239v22h59v611h-59v22zM213 836h121l-192 -138h-26z" />
    <glyph glyph-name="afii10100" unicode="&#x453;" horiz-adv-x="287" 
d="M6 437h268l5 -170h-22c-3 26 -12 66 -25 93c-14 30 -37 60 -93 57v-397h40v-20h-173v20h35v397h-35v20zM162 647h121l-192 -138h-26z" />
    <glyph glyph-name="afii10061" unicode="&#x40c;" horiz-adv-x="487" 
d="M28 655h225v-22h-59v-279h37c25 0 63 3 70 76c10 111 0 51 6 118c11 115 67 115 84 115c22 0 50 -5 71 -30c13 -16 21 -37 21 -56c0 -20 -4 -42 -18 -60c-12 -15 -24 -21 -44 -21c-43 0 -57 44 -57 71c0 23 9 28 9 41c0 5 -4 11 -12 11c-35 0 -33 -98 -35 -149
c-2 -69 -10 -96 -36 -117l1 -4c58 -7 96 -25 122 -73c22 -40 22 -79 24 -111c2 -28 6 -85 8 -104c2 -15 4 -33 25 -33c7 0 12 3 18 9l9 -15c-26 -24 -59 -30 -85 -30c-25 0 -41 10 -51 19c-22 20 -29 55 -33 83c-3 24 -5 49 -10 118c-2 30 -4 67 -22 91
c-18 25 -42 29 -59 29h-43v-310h59v-22h-225v22h58v611h-58v22zM231 836h121l-192 -138h-26z" />
    <glyph glyph-name="afii10109" unicode="&#x45c;" horiz-adv-x="378" 
d="M6 437h166v-20h-34v-177h19c14 0 30 1 42 15c6 7 15 22 22 83c4 31 6 70 26 91c12 13 27 16 39 16c36 0 70 -22 70 -72c0 -44 -26 -65 -50 -65c-13 0 -25 6 -33 23c-6 12 -7 25 -7 37c0 8 0 25 -12 25c-10 0 -14 -35 -15 -44c-1 -14 -6 -56 -13 -80
c-5 -16 -10 -26 -23 -34v-3c22 -1 45 -7 62 -19c33 -22 42 -54 45 -84l6 -54c3 -23 1 -45 17 -45c11 0 19 11 24 21l10 -9c-4 -9 -11 -21 -28 -34c-14 -11 -26 -16 -47 -16c-18 0 -34 5 -48 20c-16 18 -18 41 -21 59l-10 69c-3 22 -5 42 -19 59c-7 9 -22 21 -44 21h-12v-200
h34v-20h-166v20h34v397h-34v20zM177 647h121l-192 -138h-26z" />
    <glyph glyph-name="afii10062" unicode="&#x40e;" horiz-adv-x="410" 
d="M-14 655h217v-22h-53l131 -377l71 256c4 16 14 54 14 71c0 50 -38 50 -47 50h-10v22h150v-22c-17 -6 -33 -12 -45 -26c-1 -1 -14 -17 -25 -53l-114 -382c-9 -31 -40 -110 -56 -135c-21 -32 -47 -45 -79 -45c-23 0 -57 8 -84 42c-17 22 -28 51 -28 87c0 53 33 81 65 81
c33 0 61 -30 61 -71c0 -39 -22 -61 -42 -70c-9 -4 -23 -9 -23 -21c0 -7 6 -13 11 -16c14 -10 26 -10 40 -10s29 1 46 18c13 13 27 38 34 59l-190 542h-44v22zM238 701c13 0 30 2 40 7c9 5 15 12 15 19c0 8 -6 16 -12 23c-8 11 -12 21 -12 33c0 31 23 48 46 48
c22 0 47 -16 47 -54c0 -30 -13 -52 -34 -67c-29 -21 -65 -24 -90 -24s-61 3 -90 24c-21 15 -34 37 -34 67c0 38 25 54 47 54c25 0 46 -20 46 -48c0 -14 -4 -23 -12 -34c-6 -9 -12 -14 -12 -21s6 -15 15 -20c10 -5 27 -7 40 -7z" />
    <glyph glyph-name="afii10110" unicode="&#x45e;" horiz-adv-x="304" 
d="M-20 437h170v-20h-38l90 -294l53 208c3 13 5 24 5 38c0 16 -2 28 -14 38c-10 9 -22 10 -30 10h-10v20h134v-20h-6c-16 0 -27 -12 -33 -21c-14 -20 -23 -51 -26 -63l-88 -345c-21 -81 -38 -122 -57 -152c-20 -31 -40 -44 -71 -44c-33 0 -54 17 -65 31
c-20 24 -22 50 -22 64c0 57 39 77 62 77c26 0 49 -25 49 -58c0 -14 -4 -22 -10 -33c-8 -15 -14 -26 -14 -37c0 -17 14 -18 18 -18c21 0 37 31 45 46c12 24 21 45 30 73l-145 480h-27v20zM177 526c11 0 21 1 36 7c20 9 27 21 27 32s-6 14 -10 18c-17 15 -21 34 -21 47
c0 16 5 29 14 38s19 14 31 14c23 0 51 -15 51 -60c0 -34 -18 -71 -50 -93c-19 -13 -45 -22 -78 -22s-59 9 -78 22c-32 22 -50 59 -50 93c0 45 28 60 51 60c12 0 22 -5 31 -14s14 -22 14 -38c0 -13 -4 -32 -21 -47c-4 -4 -10 -7 -10 -18s7 -23 27 -32c15 -6 25 -7 36 -7z" />
    <glyph glyph-name="afii10056" unicode="&#x407;" horiz-adv-x="275" 
d="M28 655h226v-22h-59v-611h59v-22h-226v22h59v611h-59v22zM12 766c0 50 47 50 52 50c6 0 52 0 52 -50c0 -31 -17 -51 -52 -51c-34 0 -52 22 -52 51zM177 766c0 50 47 50 52 50c6 0 52 0 52 -50c0 -31 -18 -51 -52 -51s-52 22 -52 51z" />
    <glyph glyph-name="afii10104" unicode="&#x457;" horiz-adv-x="205" 
d="M154 445v-425h34v-20h-167v20h35v397h-36v20h75c15 0 29 1 59 8zM-30 588c0 33 23 57 51 57c33 0 50 -32 50 -57c0 -31 -23 -58 -50 -58c-28 0 -51 27 -51 58zM121 588c0 25 17 57 50 57c28 0 51 -24 51 -57c0 -31 -23 -58 -51 -58c-27 0 -50 27 -50 58z" />
    </font>
</defs>
</svg>
